<svg width="540" height="550" xmlns="http://www.w3.org/2000/svg" xmlns:svg="http://www.w3.org/2000/svg" preserveAspectRatio="xMidYMid meet">
 <title>pawn</title>
 <g>
  <title>Layer 1</title>
  <g id="svg_1" fill="#000000" transform="translate(0,1280) scale(0.10000000149011612,-0.10000000149011612) ">
   <path id="svg_2" d="m2390,12521c-16,-4 -25,-14 -25,-26c0,-14 -7,-19 -22,-18c-39,4 -92,-26 -120,-69c-41,-60 -62,-101 -63,-120c0,-9 -13,-26 -29,-37c-20,-15 -28,-27 -24,-40c3,-13 -2,-23 -17,-31c-15,-8 -20,-18 -17,-31c4,-13 -2,-25 -17,-34c-13,-9 -28,-26 -34,-40c-6,-13 -31,-48 -55,-78c-57,-70 -91,-172 -91,-276c0,-93 12,-160 32,-183c11,-13 12,-21 4,-31c-7,-8 -7,-18 -2,-27c6,-8 10,-27 10,-41c0,-32 27,-99 39,-99c12,0 34,-57 61,-157c22,-83 50,-120 83,-107c32,12 66,-14 80,-61c9,-31 21,-50 37,-58c15,-8 27,-24 30,-42c4,-24 10,-30 30,-29c14,1 32,4 41,8c22,10 47,-37 30,-57c-6,-8 -9,-22 -5,-31c4,-12 2,-15 -9,-11c-21,9 -37,-43 -28,-92c10,-51 18,-63 43,-63c15,0 19,-5 15,-20c-4,-15 0,-20 14,-20c11,0 34,-7 50,-16c28,-14 33,-14 74,6c27,13 59,20 80,19c27,-3 39,2 51,19c8,12 20,22 25,22c16,0 48,42 49,63c0,11 12,22 30,28c35,13 41,44 9,54c-16,5 -27,-1 -48,-26c-22,-25 -32,-31 -52,-26c-20,5 -24,13 -26,48c-1,26 5,48 13,57c8,8 18,27 21,43c3,16 10,29 15,29c6,0 7,-11 4,-25c-5,-20 -3,-25 13,-25c23,0 94,79 87,97c-8,19 4,43 20,43c7,0 19,10 25,23c6,12 23,34 36,49c23,24 24,30 15,58c-13,37 -5,90 14,90c18,0 18,10 -1,24c-12,9 -13,20 -4,66c10,56 31,257 48,474c8,96 7,123 -4,140c-8,12 -19,59 -25,106c-6,47 -21,110 -32,140c-11,30 -26,75 -34,98c-19,62 -73,152 -90,152c-8,0 -42,13 -77,29c-85,39 -126,51 -175,51c-22,0 -44,5 -47,10c-7,11 -18,11 -55,1zm170,-1716c9,-5 -1,-75 -10,-75c-4,0 -10,9 -13,20c-4,15 -14,20 -36,20c-17,0 -31,5 -31,10c0,6 -7,10 -15,10c-16,0 -20,12 -7,24c6,7 98,0 112,-9zm50,-83c0,-5 -7,-17 -16,-28c-8,-10 -14,-14 -11,-9c2,6 7,18 10,28c7,17 17,23 17,9z"/>
   <path id="svg_3" d="m3527,12353c-4,-3 -7,-15 -7,-25c0,-10 -7,-18 -17,-18c-36,-1 -63,-27 -148,-140c-48,-63 -98,-127 -111,-141c-13,-14 -22,-28 -19,-30c2,-3 -7,-36 -21,-75c-15,-38 -29,-85 -33,-104c-10,-45 -59,-186 -78,-223c-47,-91 -74,-349 -52,-486c6,-36 12,-83 14,-105c2,-21 10,-46 18,-55c8,-9 20,-40 27,-69c7,-33 19,-56 31,-63c11,-5 27,-28 35,-49c17,-42 27,-48 140,-73c56,-13 63,-12 84,5c12,10 28,18 36,18c22,0 129,58 150,81c10,11 32,28 47,36c49,25 236,176 243,195c3,10 12,18 20,18c8,0 14,7 14,15c0,8 5,15 10,15c6,0 10,7 10,15c0,8 9,19 20,25c15,8 19,17 15,31c-5,14 0,22 17,30c33,14 60,91 60,167c0,12 4,22 9,22c12,0 11,37 -2,61c-8,15 -7,26 4,42c8,13 14,47 14,80c0,46 -4,60 -18,68c-23,12 -25,57 -3,66c12,4 11,8 -8,17c-15,8 -22,19 -20,33c2,12 -4,23 -15,27c-15,6 -15,8 7,19c35,18 35,33 0,47c-28,12 -33,11 -55,-10c-29,-27 -32,-15 -10,37c8,19 15,44 15,54c0,11 5,19 10,19c6,0 19,14 30,32c17,28 17,34 5,48c-20,22 -55,101 -55,125c0,24 -56,95 -75,95c-7,0 -27,18 -44,39c-23,28 -37,38 -51,34c-13,-3 -29,5 -48,27c-25,27 -33,30 -50,21c-13,-7 -38,-7 -78,-1c-33,6 -59,10 -60,10c0,0 -4,-3 -7,-7zm-152,-333c3,-5 1,-10 -4,-10c-6,0 -11,5 -11,10c0,6 2,10 4,10c3,0 8,-4 11,-10zm53,-60c-7,-10 -14,-18 -15,-16c-6,6 9,36 18,36c5,0 4,-9 -3,-20z"/>
   <path id="svg_4" d="m3052,11702c-24,-19 -21,-32 8,-32c16,0 50,29 50,43c0,13 -35,6 -58,-11z"/>
   <path id="svg_5" d="m3065,11640c-3,-5 -1,-10 4,-10c6,0 11,5 11,10c0,6 -2,10 -4,10c-3,0 -8,-4 -11,-10z"/>
   <path id="svg_6" d="m1450,11371c0,-5 7,-12 16,-15c14,-5 14,-9 3,-22c-11,-14 -10,-19 11,-36c19,-15 22,-23 13,-36c-14,-24 -64,-28 -79,-7c-12,15 -14,15 -38,0c-14,-10 -26,-24 -26,-31c0,-8 -6,-14 -13,-14c-7,0 -29,-17 -49,-37c-37,-39 -43,-68 -22,-117c6,-15 -1,-27 -31,-53c-39,-34 -39,-34 -15,-41c25,-6 25,-6 -5,-13c-26,-6 -23,-7 18,-8c56,-1 61,-17 17,-49c-33,-24 -39,-42 -15,-42c8,0 15,-6 15,-13c0,-7 12,-12 28,-12c45,0 38,-18 -23,-54c-55,-32 -57,-34 -36,-45c12,-7 18,-15 15,-19c-4,-4 -2,-7 4,-7c7,0 12,5 12,10c0,6 5,10 10,10c6,0 10,-7 10,-15c0,-8 6,-15 13,-15c8,0 7,-3 -3,-10c-9,-6 -19,-5 -29,3c-9,7 -7,0 5,-18c18,-28 18,-29 0,-22c-13,5 -17,3 -13,-7c3,-8 -2,-16 -14,-19c-23,-6 -55,30 -64,73c-4,17 -11,30 -16,30c-6,0 -7,-4 -4,-10c3,-5 1,-10 -4,-10c-20,0 -11,-31 19,-63c16,-18 30,-35 30,-39c0,-15 -21,-18 -41,-7c-17,9 -23,8 -30,-2c-8,-12 -10,-12 -18,0c-6,9 -14,11 -26,4c-16,-9 -14,-12 14,-29c18,-11 31,-27 31,-38c0,-16 3,-17 12,-8c7,7 19,12 27,11c11,0 12,-2 3,-6c-6,-2 -10,-9 -6,-14c3,-5 -2,-9 -12,-9c-12,0 -15,-6 -11,-21c3,-13 1,-19 -6,-16c-7,2 -11,12 -11,21c1,9 -4,16 -10,16c-8,0 -11,-13 -8,-36c3,-26 7,-32 13,-23c8,11 15,7 34,-16c14,-16 23,-35 21,-42c-3,-6 2,-17 10,-24c12,-10 17,-9 27,1c8,9 8,11 1,7c-16,-9 -22,12 -13,48l7,30l1,-31c0,-18 7,-34 16,-38c18,-7 20,-46 3,-47c-7,-1 -21,-1 -30,0c-14,2 -18,-5 -18,-29c0,-21 -4,-30 -12,-27c-7,2 -14,9 -14,15c-1,7 -2,17 -3,22c-2,16 -21,12 -21,-4c0,-9 -7,-13 -20,-11c-37,7 -31,-16 19,-65c28,-29 52,-46 56,-40c14,23 24,-3 18,-51c-5,-42 -3,-49 10,-44c8,4 18,2 22,-4c3,-7 -2,-11 -14,-11c-11,0 -23,-4 -26,-10c-9,-14 29,-12 43,2c20,20 44,18 64,-8c23,-29 72,-33 84,-6c4,9 6,20 6,25c-1,4 3,7 8,7c15,0 12,19 -6,38c-15,15 -16,14 -9,-7c6,-20 4,-23 -10,-18c-9,4 -21,7 -27,7c-5,0 -8,10 -6,23c2,14 9,22 20,21c10,-1 17,1 16,5c-2,22 3,41 11,36c5,-3 13,0 16,6c4,5 14,8 22,5c9,-4 13,-1 10,6c-2,7 -12,12 -21,12c-13,-2 -14,1 -6,11c8,9 8,15 0,20c-5,3 -10,3 -10,-1c0,-3 -6,-1 -14,5c-10,9 -16,9 -21,1c-5,-8 -11,-8 -21,1c-7,6 -21,9 -29,5c-13,-5 -14,-2 -4,16c9,17 9,23 0,26c-11,4 -16,42 -5,42c4,0 22,-13 41,-30c35,-31 68,-39 76,-17c3,6 3,-3 0,-20c-3,-21 -1,-33 6,-33c6,0 10,-5 8,-12c-1,-6 5,-13 14,-15c13,-3 16,5 17,39c0,61 0,62 17,48c9,-7 15,-8 15,-2c0,5 18,12 41,14c37,3 41,1 56,-30c12,-25 18,-30 25,-20c6,8 7,0 3,-24c-7,-43 9,-68 38,-60c16,4 18,1 13,-16c-10,-29 12,-38 35,-13c20,22 26,51 9,51c-15,0 -12,36 5,50c8,6 14,19 13,28c-3,37 3,52 19,52c14,0 14,3 5,12c-10,10 -15,10 -22,-2c-5,-8 -12,-11 -16,-7c-11,10 16,37 37,37c11,0 19,-7 20,-17c0,-14 2,-13 9,5c6,14 6,32 -1,49c-12,33 2,53 25,34c18,-15 37,-6 30,13c-3,8 -1,17 5,21c6,3 11,-1 11,-9c0,-16 26,-46 41,-46c5,0 9,25 9,56c0,41 -5,63 -20,81c-27,34 -25,45 5,37c19,-5 25,-2 25,10c0,20 -32,35 -38,18c-2,-7 -10,-12 -18,-12c-10,0 -13,-7 -8,-25c4,-16 2,-25 -6,-25c-6,0 -9,-3 -6,-8c2,-4 -7,-12 -20,-19c-19,-9 -24,-8 -24,3c0,8 4,14 9,14c5,0 11,15 15,33c6,27 2,36 -19,55c-15,12 -30,20 -35,17c-10,-6 -14,6 -30,90c-7,33 -15,67 -18,75c-3,8 -7,25 -8,37c-2,13 -17,51 -34,85c-17,35 -37,74 -44,88c-9,19 -10,31 -2,43c9,15 7,21 -9,33c-11,9 -19,18 -19,22c1,4 4,19 8,35c7,30 -9,37 -28,12c-10,-14 -16,-11 -45,19c-28,29 -30,34 -12,29c12,-3 21,-1 21,6c0,6 -5,11 -11,11c-6,0 -9,9 -6,20c3,13 -3,24 -19,35c-27,17 -32,35 -9,35c26,0 16,18 -15,29c-16,5 -30,6 -30,2z"/>
   <path id="svg_7" d="m1550,11371c0,-5 5,-13 10,-16c6,-3 10,-2 10,4c0,5 -4,13 -10,16c-5,3 -10,2 -10,-4z"/>
   <path id="svg_8" d="m1590,11351c0,-4 11,-25 25,-45c28,-41 31,-56 14,-73c-8,-8 -8,-16 0,-30c10,-17 10,-17 11,3c0,12 7,27 15,34c22,18 19,37 -12,81c-26,35 -53,51 -53,30z"/>
   <path id="svg_9" d="m1542,11309c5,-14 68,-53 68,-42c0,7 -26,28 -54,44c-14,8 -17,8 -14,-2z"/>
   <path id="svg_10" d="m1540,11266c0,-2 7,-9 15,-16c12,-10 15,-10 15,4c0,9 -7,16 -15,16c-8,0 -15,-2 -15,-4z"/>
   <path id="svg_11" d="m1661,11203c0,-25 1,-26 9,-8c12,27 12,35 0,35c-5,0 -10,-12 -9,-27z"/>
   <path id="svg_12" d="m2960,11180c0,-5 5,-10 10,-10c6,0 10,5 10,10c0,6 -4,10 -10,10c-5,0 -10,-4 -10,-10z"/>
   <path id="svg_13" d="m1690,11160c0,-5 5,-10 11,-10c5,0 7,5 4,10c-3,6 -8,10 -11,10c-2,0 -4,-4 -4,-10z"/>
   <path id="svg_14" d="m1208,11133c7,-3 16,-2 19,1c4,3 -2,6 -13,5c-11,0 -14,-3 -6,-6z"/>
   <path id="svg_15" d="m1670,11110c0,-5 5,-10 11,-10c5,0 7,5 4,10c-3,6 -8,10 -11,10c-2,0 -4,-4 -4,-10z"/>
   <path id="svg_16" d="m1700,11110c0,-5 5,-10 11,-10c5,0 7,5 4,10c-3,6 -8,10 -11,10c-2,0 -4,-4 -4,-10z"/>
   <path id="svg_17" d="m2907,11093c-10,-9 -9,-23 2,-23c5,0 11,7 15,15c5,15 -5,20 -17,8z"/>
   <path id="svg_18" d="m1720,11057c0,-7 7,-22 16,-33c14,-17 15,-17 10,-1c-3,10 -6,25 -6,33c0,8 -4,14 -10,14c-5,0 -10,-6 -10,-13z"/>
   <path id="svg_19" d="m810,11034c0,-8 5,-12 10,-9c6,4 8,11 5,16c-9,14 -15,11 -15,-7z"/>
   <path id="svg_20" d="m1650,11041c0,-6 5,-13 10,-16c6,-3 10,1 10,9c0,9 -4,16 -10,16c-5,0 -10,-4 -10,-9z"/>
   <path id="svg_21" d="m1200,11025c-10,-12 -10,-15 4,-15c9,0 16,7 16,15c0,8 -2,15 -4,15c-2,0 -9,-7 -16,-15z"/>
   <path id="svg_22" d="m1690,11005c-18,-21 -3,-32 16,-13c10,9 12,18 6,22c-5,3 -15,-1 -22,-9z"/>
   <path id="svg_23" d="m931,10964c0,-11 3,-14 6,-6c3,7 2,16 -1,19c-3,4 -6,-2 -5,-13z"/>
   <path id="svg_24" d="m1157,10946c-6,-16 2,-28 14,-20c12,7 11,34 0,34c-5,0 -11,-6 -14,-14z"/>
   <path id="svg_25" d="m760,10940c-13,-8 -12,-10 3,-10c9,0 17,5 17,10c0,12 -1,12 -20,0z"/>
   <path id="svg_26" d="m1716,10941c-3,-5 5,-16 19,-25c21,-14 25,-14 25,-2c0,18 -36,40 -44,27z"/>
   <path id="svg_27" d="m3785,10940c-3,-5 -1,-10 4,-10c6,0 11,5 11,10c0,6 -2,10 -4,10c-3,0 -8,-4 -11,-10z"/>
   <path id="svg_28" d="m1178,10893c-10,-11 -18,-24 -18,-30c0,-6 -7,-13 -15,-17c-16,-6 -21,-26 -6,-26c21,0 62,49 59,71c-3,21 -3,21 -20,2z"/>
   <path id="svg_29" d="m1840,10838c0,-7 4,-19 8,-26c11,-17 45,-4 38,15c-3,8 -6,17 -6,19c0,2 -9,4 -20,4c-11,0 -20,-6 -20,-12z"/>
   <path id="svg_30" d="m1195,10830c3,-5 10,-10 16,-10c5,0 9,5 9,10c0,6 -7,10 -16,10c-8,0 -12,-4 -9,-10z"/>
   <path id="svg_31" d="m1785,10810c-3,-5 1,-10 9,-10c9,0 16,5 16,10c0,6 -4,10 -9,10c-6,0 -13,-4 -16,-10z"/>
   <path id="svg_32" d="m1070,10800c0,-5 5,-10 10,-10c6,0 10,5 10,10c0,6 -4,10 -10,10c-5,0 -10,-4 -10,-10z"/>
   <path id="svg_33" d="m1140,10800c0,-5 5,-10 10,-10c6,0 10,5 10,10c0,6 -4,10 -10,10c-5,0 -10,-4 -10,-10z"/>
   <path id="svg_34" d="m4380,10799c-25,-5 -52,-6 -61,-4c-9,3 -28,0 -43,-6c-19,-9 -29,-9 -40,0c-11,9 -18,6 -35,-15c-12,-15 -21,-30 -21,-34c0,-4 -13,-10 -28,-13c-20,-4 -47,-28 -85,-74c-30,-37 -65,-78 -76,-91c-12,-12 -21,-30 -21,-38c0,-11 -6,-13 -21,-9c-14,5 -19,3 -15,-3c5,-8 -42,-32 -63,-32c-13,0 -32,69 -25,94c4,19 2,26 -9,26c-8,0 -18,-7 -21,-16c-4,-10 -12,-14 -22,-10c-12,4 -14,1 -9,-14c5,-15 0,-23 -19,-31c-14,-7 -28,-20 -31,-31c-4,-11 -16,-18 -31,-18c-15,0 -24,-6 -24,-15c0,-8 -7,-15 -15,-15c-20,0 -19,10 5,40c25,32 25,44 0,37c-23,-6 -27,12 -7,32c10,11 10,14 0,18c-18,6 -16,23 2,23c8,0 15,7 15,15c0,8 -5,15 -11,15c-15,0 -69,-62 -63,-72c3,-4 0,-8 -5,-8c-6,0 -11,-6 -11,-13c0,-23 -76,-51 -130,-48c-27,1 -51,-3 -55,-9c-11,-17 3,-24 20,-10c12,10 16,9 21,-4c8,-20 27,-20 64,-1c17,9 30,11 30,6c0,-16 -24,-29 -65,-36c-52,-8 -95,-25 -95,-36c0,-13 23,-11 63,6c49,20 80,19 102,-5c16,-17 16,-20 2,-20c-9,0 -19,5 -23,11c-5,8 -9,8 -14,-1c-4,-6 -31,-13 -59,-14c-30,-1 -58,-9 -67,-17c-9,-10 -26,-14 -44,-11c-30,4 -38,16 -20,27c15,9 2,25 -21,25c-14,0 -19,-7 -19,-25c0,-13 -8,-28 -17,-34c-15,-8 -16,-12 -5,-23c9,-9 19,-10 40,-2c15,6 37,7 47,4c12,-5 26,-2 36,6c14,12 20,12 43,0c30,-15 28,-18 -26,-35c-60,-20 -40,-46 25,-35c32,6 32,6 10,-10c-13,-10 -23,-21 -23,-27c0,-15 86,-11 100,6c7,8 22,15 34,15c20,-1 19,-2 -7,-26c-16,-14 -36,-22 -45,-20c-27,9 -38,-6 -38,-46c0,-30 4,-38 18,-38c10,0 18,7 18,15c0,8 6,15 13,15c8,0 12,-17 12,-55c-1,-49 1,-54 17,-49c12,3 18,0 18,-10c0,-9 7,-16 16,-16c13,0 11,-6 -7,-31l-22,-31l22,7c18,5 21,2 21,-22c0,-16 -5,-34 -11,-40c-10,-10 -20,-93 -12,-93c2,0 17,7 33,15c17,9 30,11 30,6c0,-11 -29,-35 -44,-36c-22,-2 -46,-17 -40,-26c3,-5 10,-7 15,-3c6,3 10,0 8,-7c-3,-27 1,-38 19,-48c14,-8 18,-5 19,11c3,28 10,33 27,19c11,-9 13,-22 9,-44c-6,-30 -5,-31 13,-17c10,8 22,19 26,25c4,5 10,6 14,3c3,-4 -1,-14 -10,-23c-9,-9 -16,-23 -16,-31c0,-23 26,-16 44,11c15,22 45,38 32,16c-7,-10 19,-23 28,-14c14,14 4,54 -19,79c-14,15 -25,23 -25,18c0,-5 -4,-15 -9,-22c-6,-11 -13,-9 -32,10c-26,27 -39,66 -18,52c23,-14 103,-22 116,-12c7,5 14,5 17,-1c4,-6 14,-7 23,-4c11,5 14,3 9,-6c-5,-8 -18,-10 -33,-6c-22,5 -24,3 -21,-22c2,-23 8,-28 31,-28c29,0 47,-18 47,-49c0,-15 -3,-16 -15,-6c-12,10 -17,7 -26,-14c-10,-20 -15,-23 -26,-15c-9,8 -13,8 -13,1c0,-6 -6,-9 -14,-6c-9,4 -18,-6 -27,-30c-7,-20 -17,-36 -21,-36c-5,0 -4,-9 2,-20c6,-10 9,-25 8,-32c-2,-7 7,-14 19,-16c12,-2 27,-10 33,-18c17,-19 30,-18 30,4c0,14 4,12 20,-8c19,-25 19,-25 -2,-47c-21,-22 -21,-23 -3,-43c10,-11 26,-20 34,-19c9,1 31,-2 49,-6c31,-7 32,-9 32,-56c0,-32 4,-49 13,-50c6,-1 30,-2 52,-3c37,-1 39,-3 41,-33c1,-18 -2,-30 -7,-27c-5,3 -9,-2 -9,-10c0,-19 20,-31 46,-28c15,2 23,-4 27,-17c4,-16 13,-21 41,-21c20,0 36,5 36,10c0,6 8,10 18,11c13,0 12,2 -5,9c-15,6 -23,18 -23,34c0,14 -9,41 -21,60l-21,36l21,0c24,0 27,10 9,29c-7,6 -13,15 -13,19c0,24 -50,84 -84,102c-23,11 -41,25 -41,30c0,6 -5,10 -11,10c-6,0 -8,-8 -4,-19c3,-11 0,-21 -9,-24c-21,-8 -56,21 -56,46c0,12 -9,36 -20,52c-27,40 -25,50 9,52c19,1 36,-6 51,-23c13,-13 29,-24 37,-24c7,0 13,-6 13,-14c0,-21 56,-41 75,-26c15,13 35,6 35,-13c0,-7 16,-17 35,-23c37,-12 48,-1 16,16c-11,5 -21,22 -23,37c-2,20 -8,28 -20,27c-10,-1 -18,0 -18,3c0,12 32,64 37,59c4,-3 11,-2 17,2c6,5 22,6 36,2c23,-6 22,-7 -12,-14c-24,-4 -38,-13 -38,-22c0,-19 28,-30 43,-15c18,18 24,13 31,-24c7,-34 26,-49 26,-20c0,8 4,15 9,15c5,0 8,20 7,44c-1,30 -5,42 -14,39c-8,-4 -10,0 -6,11c3,9 12,16 20,16c17,0 18,12 2,28c-9,9 -6,12 14,12c15,0 30,5 33,10c10,16 28,12 21,-5c-6,-16 10,-20 38,-9c12,5 13,11 5,27c-9,19 -8,19 11,-2c12,-14 19,-33 17,-43c-3,-11 2,-22 14,-28c11,-6 16,-17 13,-28c-5,-15 -4,-15 6,1c9,15 8,22 -6,38c-17,18 -16,19 16,19c34,0 35,4 15,53c-5,13 -2,17 13,17c12,0 24,-4 27,-10c8,-13 45,-13 45,1c0,5 -4,7 -10,4c-5,-3 -15,-3 -21,1c-7,4 -1,12 17,20c26,11 27,12 7,13c-18,1 -22,6 -21,27c2,25 5,26 45,21c40,-4 42,-3 37,18c-4,15 0,24 10,28c12,5 16,0 16,-22c0,-36 37,-73 50,-51c6,8 10,25 10,38c0,12 5,22 11,22c5,0 7,5 4,10c-3,6 5,14 19,20c31,11 34,30 6,37c-11,3 -20,9 -20,13c0,10 47,30 71,30c38,0 76,68 49,85c-6,4 -8,11 -4,16c3,5 10,7 15,4c5,-4 19,-3 30,0c17,6 20,12 15,38c-4,17 -11,34 -17,38c-17,10 0,49 22,49c10,0 19,6 19,14c0,8 6,17 13,20c9,5 9,7 -1,12c-7,3 -19,13 -28,21c-8,8 -18,13 -21,9c-3,-3 -12,-1 -20,5c-7,7 -26,9 -43,5c-17,-3 -30,-1 -30,4c0,10 16,15 71,24c21,4 43,14 50,22c11,13 10,19 -8,32c-11,10 -23,25 -26,35c-4,9 -13,17 -22,17c-8,0 -15,4 -15,9c0,5 17,7 39,4l38,-5l1,60c1,52 -2,62 -18,67c-11,3 -29,19 -40,35l-20,29l20,6c17,6 18,8 6,21c-8,8 -19,14 -25,14c-6,0 -11,8 -11,19c0,26 -27,48 -42,33c-17,-17 -28,-15 -28,6c0,27 -56,58 -160,88c-52,16 -96,32 -98,36c-5,10 -63,9 -122,-3zm-117,-139c-3,-11 -10,-20 -17,-20c-6,0 0,-9 13,-19c36,-28 23,-43 -21,-22l-38,17l30,32c34,37 40,40 33,12zm77,-81c0,-6 -4,-7 -10,-4c-5,3 -10,11 -10,16c0,6 5,7 10,4c6,-3 10,-11 10,-16zm-70,-169c0,-5 -4,-10 -10,-10c-5,0 -10,5 -10,10c0,6 5,10 10,10c6,0 10,-4 10,-10zm-678,-60c-3,-24 -9,-30 -29,-30c-13,0 -31,7 -40,15c-14,14 -13,15 12,9c20,-5 26,-4 21,5c-4,7 2,15 16,20c13,6 23,10 24,10c0,1 -1,-12 -4,-29zm628,-370c0,-5 -4,-10 -10,-10c-5,0 -10,5 -10,10c0,6 5,10 10,10c6,0 10,-4 10,-10z"/>
   <path id="svg_35" d="m770,10790c0,-5 5,-10 11,-10c5,0 7,5 4,10c-3,6 -8,10 -11,10c-2,0 -4,-4 -4,-10z"/>
   <path id="svg_36" d="m1193,10785c-13,-5 -23,-16 -23,-23c0,-9 7,-11 23,-6c28,8 29,10 25,26c-2,10 -9,10 -25,3z"/>
   <path id="svg_37" d="m1813,10753c-26,-5 -29,-13 -11,-31c9,-9 14,-7 25,6c12,16 14,16 27,0c7,-10 20,-18 29,-18c16,0 30,26 21,41c-5,9 -50,10 -91,2z"/>
   <path id="svg_38" d="m1770,10726c0,-9 5,-16 10,-16c6,0 10,4 10,9c0,6 -4,13 -10,16c-5,3 -10,-1 -10,-9z"/>
   <path id="svg_39" d="m2092,10701c-17,-10 -6,-60 15,-68c19,-8 37,12 27,29c-9,13 -10,18 -13,38c-1,12 -11,13 -29,1z"/>
   <path id="svg_40" d="m3122,10616c-24,-42 -32,-68 -32,-106c0,-34 4,-49 11,-45c6,4 8,13 5,20c-5,15 17,38 27,28c13,-12 7,-22 -9,-16c-15,5 -15,3 1,-20c10,-16 22,-24 29,-19c6,4 22,7 36,7c18,0 24,5 22,18c-2,9 3,17 9,17c7,0 10,3 6,6c-12,13 20,32 45,27c14,-3 29,0 32,6c4,6 16,11 26,11c13,0 17,5 14,15c-4,10 0,15 12,15c13,1 9,5 -12,14c-17,8 -34,21 -37,30c-4,11 -16,15 -35,13c-46,-5 -54,-15 -47,-56c5,-33 3,-40 -19,-54c-36,-24 -43,-21 -38,13c3,23 0,30 -12,30c-9,0 -16,6 -16,14c0,17 24,38 33,29c11,-11 7,11 -7,36c-13,23 -13,22 -44,-33z"/>
   <path id="svg_41" d="m708,10648c-36,-13 -35,-23 2,-24c23,-1 30,3 30,17c0,11 -1,19 -2,18c-2,0 -15,-5 -30,-11z"/>
   <path id="svg_42" d="m3520,10620c0,-5 5,-10 11,-10c5,0 7,5 4,10c-3,6 -8,10 -11,10c-2,0 -4,-4 -4,-10z"/>
   <path id="svg_43" d="m670,10575c0,-15 18,-40 24,-34c3,3 -1,14 -9,25c-8,10 -14,15 -15,9z"/>
   <path id="svg_44" d="m1010,10570c0,-5 5,-10 10,-10c6,0 10,5 10,10c0,6 -4,10 -10,10c-5,0 -10,-4 -10,-10z"/>
   <path id="svg_45" d="m3375,10550c3,-5 11,-10 16,-10c6,0 7,5 4,10c-3,6 -11,10 -16,10c-6,0 -7,-4 -4,-10z"/>
   <path id="svg_46" d="m725,10500c-16,-18 -17,-23 -5,-30c11,-7 17,-3 23,12c12,33 3,42 -18,18z"/>
   <path id="svg_47" d="m1050,10485c-14,-16 -10,-18 14,-9c9,3 16,10 16,15c0,14 -16,11 -30,-6z"/>
   <path id="svg_48" d="m1021,10454c0,-11 3,-14 6,-6c3,7 2,16 -1,19c-3,4 -6,-2 -5,-13z"/>
   <path id="svg_49" d="m768,10443c7,-3 16,-2 19,1c4,3 -2,6 -13,5c-11,0 -14,-3 -6,-6z"/>
   <path id="svg_50" d="m1078,10435c-11,-11 14,-56 28,-51c8,3 16,1 19,-4c4,-6 -1,-10 -10,-10c-9,0 -13,-5 -10,-11c4,-6 13,-8 21,-5c8,3 14,1 14,-4c0,-6 4,-10 9,-10c5,0 5,14 -1,33c-6,17 -13,39 -15,47c-4,13 -6,12 -14,-2c-13,-24 -27,-23 -31,3c-2,11 -6,18 -10,14z"/>
   <path id="svg_51" d="m875,10410c-3,-5 1,-10 9,-10c9,0 16,5 16,10c0,6 -4,10 -9,10c-6,0 -13,-4 -16,-10z"/>
   <path id="svg_52" d="m757,10403c-4,-3 -7,-11 -7,-17c0,-6 5,-5 12,2c6,6 9,14 7,17c-3,3 -9,2 -12,-2z"/>
   <path id="svg_53" d="m1941,10384c0,-11 3,-14 6,-6c3,7 2,16 -1,19c-3,4 -6,-2 -5,-13z"/>
   <path id="svg_54" d="m1970,10376c0,-9 5,-16 10,-16c6,0 10,4 10,9c0,6 -4,13 -10,16c-5,3 -10,-1 -10,-9z"/>
   <path id="svg_55" d="m3027,10383c-10,-9 -9,-43 1,-43c12,0 32,23 32,37c0,14 -22,18 -33,6z"/>
   <path id="svg_56" d="m3121,10350c-13,-11 -19,-20 -13,-20c10,0 42,27 42,36c0,7 -4,5 -29,-16z"/>
   <path id="svg_57" d="m1005,10349c-4,-6 -4,-13 -1,-16c8,-8 36,5 36,17c0,13 -27,13 -35,-1z"/>
   <path id="svg_58" d="m1320,10304c0,-11 29,-34 34,-26c2,4 -4,13 -15,20c-10,7 -19,10 -19,6z"/>
   <path id="svg_59" d="m1480,10275c0,-8 4,-15 9,-15c5,0 14,7 21,15c10,13 9,15 -9,15c-12,0 -21,-6 -21,-15z"/>
   <path id="svg_60" d="m1570,10254c0,-8 5,-12 10,-9c6,4 8,11 5,16c-9,14 -15,11 -15,-7z"/>
   <path id="svg_61" d="m950,10234c0,-11 65,-64 78,-64c12,0 12,3 2,15c-7,8 -18,15 -24,15c-6,0 -17,9 -24,20c-11,18 -32,28 -32,14z"/>
   <path id="svg_62" d="m1505,10226c-11,-7 -16,-20 -12,-29c7,-18 -26,-30 -42,-14c-8,8 -11,8 -11,-1c0,-7 5,-12 10,-12c6,0 8,-11 4,-27c-6,-24 -5,-26 17,-20c13,4 27,7 32,7c4,0 7,14 7,32c0,17 7,39 16,49c19,21 3,33 -21,15z"/>
   <path id="svg_63" d="m760,10209c0,-8 9,-20 20,-27c12,-7 18,-17 15,-22c-3,-6 -1,-10 4,-10c6,0 11,12 11,27c0,14 -3,23 -7,20c-3,-4 -15,0 -25,10c-14,13 -18,13 -18,2z"/>
   <path id="svg_64" d="m2667,10214c-3,-4 -3,-20 0,-37c4,-21 3,-28 -5,-23c-7,4 -12,14 -12,22c0,11 -8,14 -27,12c-22,-2 -28,-8 -28,-28c-1,-21 -5,-25 -28,-22c-22,2 -27,-1 -27,-20c0,-20 -1,-21 -16,-6c-15,15 -18,14 -35,-3c-10,-10 -19,-27 -19,-36c0,-26 -16,-48 -24,-34c-14,23 -28,11 -22,-19c5,-29 -6,-41 -19,-20c-12,19 -23,10 -36,-27c-9,-25 -14,-32 -17,-20c-7,35 -32,10 -32,-34c0,-15 -5,-18 -24,-13c-28,7 -36,-13 -36,-95c0,-35 -6,-61 -15,-71c-13,-14 -14,-22 -4,-43c9,-21 9,-30 -1,-42c-18,-22 -33,-18 -20,5c6,11 8,35 5,54c-5,25 -3,35 9,39c18,7 22,81 7,106c-10,15 -13,7 -26,-56c-7,-36 -35,-46 -35,-13c0,11 -4,20 -10,20c-16,0 -12,-43 6,-68c16,-23 13,-52 -6,-52c-5,0 -10,14 -10,30c0,21 -5,30 -16,30c-13,0 -15,-7 -9,-37c3,-21 13,-43 21,-49c16,-13 19,-44 4,-44c-5,0 -10,5 -10,10c0,6 -4,10 -10,10c-5,0 -10,-7 -10,-15c0,-18 -26,-20 -33,-2c-4,9 -6,9 -6,-1c-2,-24 20,-54 35,-48c10,4 14,-2 14,-19c0,-29 -7,-31 -31,-9c-24,22 -39,10 -39,-32c0,-21 4,-33 10,-29c6,3 10,-1 10,-9c0,-9 -7,-16 -15,-16c-8,0 -15,-4 -15,-10c0,-5 -5,-10 -11,-10c-7,0 -8,7 -4,18c10,22 13,92 4,92c-4,0 -9,-6 -11,-12c-3,-8 -9,-4 -17,10c-6,12 -18,22 -26,22c-19,0 -19,-14 0,-30c17,-15 20,-66 4,-76c-11,-7 -29,13 -28,31c0,6 3,4 6,-2c7,-19 23,-16 23,5c0,19 -18,42 -32,42c-4,0 -8,-7 -8,-15c0,-10 -7,-15 -17,-13c-13,2 -17,-3 -16,-19c2,-13 -2,-23 -7,-23c-6,0 -10,-13 -10,-30c0,-16 -3,-30 -6,-30c-10,0 -33,27 -28,33c3,3 -4,8 -15,12c-12,3 -21,11 -21,16c0,5 -7,9 -15,9c-10,0 -15,-9 -14,-27c0,-24 2,-25 8,-9c5,14 10,16 15,8c11,-18 -4,-34 -26,-28c-29,7 -51,-19 -44,-49c8,-32 -15,-34 -29,-3c-16,35 -42,34 -50,-1c-5,-24 -12,-31 -30,-31c-17,0 -25,-6 -27,-22c-4,-29 -24,-34 -31,-8c-3,11 -10,20 -17,20c-13,0 -3,-43 11,-48c12,-5 11,-42 -1,-42c-5,0 -10,-9 -10,-20c0,-25 17,-26 23,-2c3,14 6,12 15,-9c10,-25 42,-48 42,-30c0,5 -4,11 -8,13c-12,4 -25,58 -14,58c11,0 30,-56 37,-110c5,-39 4,-42 -7,-26c-7,10 -21,28 -30,40l-17,21l0,-25c0,-26 30,-70 48,-70c6,0 11,-7 11,-16c0,-14 -3,-15 -17,-3c-42,31 -75,75 -75,96c0,26 -13,31 -22,7c-11,-27 -6,-54 8,-54c8,0 16,-10 18,-22c2,-13 8,-23 13,-22c6,1 18,-12 28,-28c13,-22 21,-27 30,-19c10,8 13,-3 15,-46c2,-35 8,-60 17,-67c9,-7 16,-30 17,-61c1,-32 7,-54 17,-62c12,-9 12,-12 3,-13c-10,0 -12,-13 -6,-57c6,-53 16,-72 37,-73c4,0 7,8 7,17c0,13 3,14 12,5c9,-9 9,-15 0,-24c-15,-15 -16,-48 -2,-48c6,0 10,-11 10,-25c0,-18 5,-25 20,-25c25,0 26,26 3,52c-15,17 -15,18 0,18c10,0 17,8 17,18c0,14 4,12 19,-8c11,-13 19,-27 19,-30c-2,-25 4,-40 17,-40c8,0 15,-7 15,-15c0,-12 -4,-13 -19,-5c-28,14 -38,13 -60,-12c-18,-18 -22,-19 -37,-7c-17,13 -17,12 -1,-12c10,-14 29,-31 42,-37c24,-11 25,-10 15,7c-5,11 -10,25 -10,31c0,18 20,0 30,-26c5,-13 15,-24 22,-24c9,0 9,3 0,12c-16,16 -15,28 1,28c11,-1 42,-58 61,-115c7,-19 8,-19 20,4c8,14 16,19 20,13c3,-6 2,-13 -4,-17c-15,-9 -12,-28 4,-22c7,3 19,0 25,-6c7,-7 17,-12 24,-12c7,0 11,-10 9,-24c-2,-15 0,-21 7,-17c6,4 11,3 11,-2c0,-5 11,-12 25,-15c18,-3 29,1 36,15c5,10 14,16 19,13c4,-3 10,0 12,6c6,17 59,-8 65,-31c3,-11 10,-17 15,-14c5,3 15,-2 23,-12c13,-18 14,-18 35,1l23,20l-7,-22c-8,-26 11,-33 20,-8c4,8 15,15 25,15c10,0 19,5 19,10c0,6 7,10 15,10c19,0 19,9 -2,32c-15,17 -15,18 2,18c13,0 16,5 11,24c-4,16 -1,26 8,29c11,4 13,-3 9,-34c-5,-38 7,-53 23,-28c4,8 9,7 14,-2c5,-7 29,-18 54,-24c38,-10 48,-9 58,2c9,11 7,15 -10,20c-29,7 -28,21 3,33c14,5 25,16 25,25c0,8 5,15 10,15c6,0 10,-4 10,-10c0,-5 7,-7 15,-4c8,4 15,2 15,-4c0,-5 -8,-13 -17,-16c-12,-5 -14,-9 -5,-18c14,-14 16,-52 3,-44c-4,3 -16,-3 -25,-13c-17,-18 -16,-20 3,-26c24,-7 51,14 51,39c0,9 5,16 10,16c6,0 10,-10 10,-22c0,-20 1,-20 19,-3c20,17 20,16 9,-21c-6,-22 -16,-47 -24,-58c-11,-16 -10,-21 1,-32c7,-8 20,-14 28,-14c9,0 17,-5 19,-12c6,-16 117,52 118,72c1,9 5,6 10,-7c5,-13 12,-23 14,-23c17,0 56,25 56,37c0,7 9,13 20,13c22,0 26,-20 8,-38c-20,-20 2,-13 24,8c12,11 19,23 15,27c-4,3 5,14 21,23c31,20 46,7 29,-23c-9,-15 -9,-21 0,-24c16,-6 -2,-51 -30,-75c-28,-26 -2,-33 68,-18c56,12 57,12 51,41c-4,23 -2,31 12,35c9,3 25,10 34,15c25,13 28,12 28,-11c0,-13 7,-20 20,-20c23,0 26,13 6,29c-8,7 -12,21 -9,31c7,25 -12,26 -26,3c-9,-16 -10,-16 -11,5c0,13 6,22 15,22c8,0 15,6 15,14c0,20 22,25 39,8c13,-12 16,-12 28,4c12,16 10,21 -14,42c-25,21 -28,22 -40,6c-11,-16 -13,-16 -19,-1c-7,20 -35,22 -52,5c-7,-7 -12,-8 -12,-2c0,18 48,37 78,31c26,-5 31,-3 36,18c7,29 15,31 42,11c18,-14 18,-15 2,-21c-26,-10 -22,-25 7,-25c14,0 25,4 25,9c0,5 14,12 30,16c41,9 38,25 -5,25c-27,0 -33,3 -29,15c4,9 14,13 23,11c9,-3 22,-2 30,3c20,13 -5,24 -36,16c-23,-5 -25,-4 -14,9c7,8 11,22 9,32c-2,9 3,19 10,21c6,3 12,0 12,-6c0,-6 9,-11 19,-11c11,0 21,-6 24,-12c3,-9 9,-7 20,7c14,18 14,20 -3,23c-18,3 -32,43 -21,60c3,4 14,12 25,15c15,6 17,4 12,-18c-6,-23 -5,-24 19,-13c14,6 25,15 25,20c0,4 5,8 10,8c6,0 10,-6 10,-14c0,-8 7,-17 16,-20c9,-4 14,-9 11,-13c-4,-3 -13,-1 -20,6c-25,20 -44,2 -51,-49c-4,-27 -11,-52 -16,-55c-18,-11 -10,-26 13,-23c19,3 22,10 25,51c2,36 7,47 20,48c9,0 32,1 50,2c17,1 32,-1 32,-5c0,-10 -42,-22 -64,-19c-11,2 -17,-2 -14,-10c2,-7 26,-13 57,-15c29,-1 55,-5 58,-8c11,-11 -10,-26 -38,-26c-16,0 -29,-4 -29,-10c0,-5 7,-7 15,-3c9,3 24,-2 34,-11c15,-14 20,-14 30,-3c6,8 9,21 6,29c-4,10 1,17 14,21c27,7 27,32 -1,51l-21,15l26,10c14,6 31,20 37,32c11,20 11,21 -16,15c-16,-4 -36,-13 -44,-20c-22,-20 -73,-30 -68,-14c3,7 15,15 29,18c16,4 23,12 21,24c-3,15 1,17 22,12c19,-5 26,-2 26,8c0,25 28,40 53,28c21,-10 21,-11 -7,-11c-41,-1 -23,-14 55,-39c70,-24 99,-27 99,-13c0,11 -25,21 -51,21c-26,0 -47,44 -30,64c10,12 5,18 -30,37c-55,28 -35,41 41,27c30,-5 63,-11 73,-12c9,-1 23,-8 29,-14c7,-7 17,-12 23,-12c6,0 28,-16 49,-35c25,-22 33,-35 23,-35c-9,0 -19,5 -22,10c-8,13 -65,13 -65,0c0,-12 35,-31 44,-23c3,3 6,-1 6,-10c0,-9 5,-19 10,-22c15,-9 50,4 50,20c0,20 19,28 35,15c8,-6 16,-7 19,-2c7,12 -6,23 -64,50c-39,19 -41,22 -19,22c15,0 54,-18 87,-40c71,-48 86,-51 70,-14c-8,17 -18,24 -30,21c-10,-3 -18,0 -18,7c0,23 -37,48 -60,41c-19,-6 -20,-5 -9,13c7,12 17,18 23,15c5,-4 7,1 3,10c-3,10 -2,17 4,17c6,0 8,9 4,23c-6,18 -5,20 6,10c7,-7 12,-26 12,-43c0,-23 8,-37 29,-51c15,-11 28,-15 28,-9c0,16 -39,90 -67,128c-14,18 -22,39 -19,47c3,8 1,17 -4,20c-6,4 -10,-8 -10,-27c0,-25 -3,-29 -10,-18c-16,25 -12,80 5,80c13,0 12,7 -6,43c-19,37 -23,40 -30,22c-6,-16 -8,-17 -8,-3c-2,31 -20,29 -37,-3c-14,-28 -18,-30 -26,-16c-11,21 -28,22 -28,2c0,-21 -9,-19 -31,8c-13,15 -18,38 -19,75c0,33 -4,51 -10,47c-16,-10 -12,43 6,70c9,14 14,32 10,40c-6,17 -36,21 -36,4c0,-5 -5,-7 -10,-4c-6,4 -8,15 -5,26c8,24 -10,25 -54,3c-18,-9 -35,-14 -38,-11c-3,4 6,9 21,13c21,5 26,12 26,35c0,19 -5,29 -15,29c-8,0 -15,7 -15,15c0,8 -7,15 -15,15c-10,0 -15,-10 -15,-31c0,-25 -3,-29 -13,-20c-8,6 -17,8 -20,4c-4,-3 -7,-1 -7,5c0,5 5,12 12,14c7,3 13,15 14,29c1,13 7,37 13,53c13,33 10,40 -17,32c-12,-4 -18,-14 -17,-29c1,-12 0,-15 -2,-6c-2,10 -21,20 -45,25c-23,5 -43,15 -46,23c-3,9 2,11 17,6c23,-7 55,11 45,26c-3,5 -25,9 -50,9c-42,0 -44,-1 -44,-29c0,-31 30,-61 61,-61c19,0 52,-34 42,-43c-10,-10 -25,-8 -19,2c12,19 -24,34 -70,28c-44,-5 -67,-21 -61,-41c5,-16 27,-19 27,-4c0,10 10,13 33,10c31,-3 33,-6 29,-34c-4,-29 -4,-29 32,-23l36,7l-17,-31c-10,-17 -21,-31 -25,-31c-9,0 -48,69 -48,86c0,9 -6,14 -12,11c-8,-2 -12,-17 -10,-35c2,-18 -3,-41 -11,-52c-14,-21 -14,-21 -20,2c-4,13 -2,25 3,26c6,2 10,10 10,19c0,10 -6,12 -20,8c-16,-5 -19,-3 -13,12c6,15 4,16 -9,6c-23,-19 -28,-5 -22,52c6,48 5,53 -16,58c-16,4 -20,11 -16,25c5,15 1,21 -16,26l-23,7l23,9c28,12 28,19 -2,48c-23,21 -25,22 -35,5c-10,-17 -10,-16 -11,3c0,27 17,40 54,42c36,2 43,9 28,24c-9,9 -17,10 -30,1c-15,-9 -21,-7 -30,7c-6,10 -8,27 -5,38c4,17 0,21 -23,24c-15,2 -30,10 -32,18c-5,13 -3,13 12,0c16,-12 20,-11 37,10c22,30 19,46 -9,43c-15,-2 -19,2 -15,16c6,24 -15,38 -23,16c-9,-23 -26,3 -18,28c3,10 -1,19 -10,23c-9,3 -16,14 -16,24c0,22 -16,35 -25,20c-11,-18 -20,-11 -21,18c-1,25 2,28 23,24c18,-3 23,0 23,15c0,28 -7,32 -38,24c-22,-6 -35,-1 -69,27c-43,35 -53,56 -30,65c7,3 2,9 -13,15c-14,6 -21,11 -15,11c5,1 -14,24 -44,52c-35,33 -60,49 -72,46c-10,-3 -20,1 -23,9c-3,8 -12,14 -21,14c-8,0 -15,5 -15,10c0,14 -28,12 -33,-2c-3,-10 -7,-10 -19,0c-8,6 -34,13 -56,15c-23,1 -44,6 -48,10c-11,11 -44,8 -44,-3c0,-5 -7,-10 -15,-10c-8,0 -15,5 -15,10c0,11 -13,13 -23,4zm-280,-329c-4,-8 -11,-15 -17,-15c-7,0 -7,6 0,21c13,23 26,19 17,-6zm-527,-467c0,-7 3,-24 6,-38l5,-25l-15,25c-18,29 -20,50 -6,50c6,0 10,-6 10,-12zm-140,-89c0,-17 -20,-29 -20,-11c0,4 -3,18 -7,32c-6,22 -5,24 10,11c9,-7 17,-22 17,-32zm-40,-69c11,-6 17,-17 14,-25c-9,-22 -44,26 -43,57l2,23l4,-23c2,-12 13,-27 23,-32zm330,40c0,-5 -4,-10 -10,-10c-5,0 -10,5 -10,10c0,6 5,10 10,10c6,0 10,-4 10,-10zm-28,-85c0,-5 -5,-11 -10,-13c-5,-1 -9,4 -9,13c0,9 4,14 9,13c5,-2 10,-8 10,-13zm343,-10c0,-10 -6,-20 -12,-22c-8,-3 -13,5 -13,22c0,17 5,25 13,23c6,-3 12,-13 12,-23zm1228,-12c-6,-19 -32,-43 -45,-43c-4,0 -8,9 -8,20c0,13 5,18 15,14c9,-4 15,0 15,10c0,9 7,16 15,16c9,0 12,-6 8,-17zm-1129,-9c9,-24 -4,-32 -16,-11c-9,18 -10,18 -24,0c-11,-13 -14,-14 -12,-3c6,31 42,40 52,14zm66,0c0,-8 -5,-12 -10,-9c-6,4 -8,11 -5,16c9,14 15,11 15,-7zm-530,-25c0,-18 -4,-28 -10,-24c-6,4 -8,11 -5,16c4,5 0,9 -9,9c-8,0 -16,-6 -19,-12c-2,-7 -8,-10 -12,-6c-8,7 32,47 48,48c4,0 7,-14 7,-31zm35,1c3,-5 1,-10 -4,-10c-6,0 -11,5 -11,10c0,6 2,10 4,10c3,0 8,-4 11,-10zm195,-50c0,-5 -5,-10 -11,-10c-5,0 -7,5 -4,10c3,6 8,10 11,10c2,0 4,-4 4,-10zm-303,-46c-3,-3 -12,-4 -19,-1c-8,3 -5,6 6,6c11,1 17,-2 13,-5zm506,-49c29,-5 37,-10 35,-23c-2,-9 -13,-18 -25,-20c-12,-2 -26,-9 -32,-16c-11,-13 -61,-10 -61,4c0,4 12,5 26,2c20,-4 25,-1 22,9c-3,8 -14,13 -24,12c-14,-1 -19,5 -20,22c-2,20 2,24 20,20c11,-2 38,-7 59,-10zm-516,-1c-3,-3 -12,-4 -19,-1c-8,3 -5,6 6,6c11,1 17,-2 13,-5zm53,-14c0,-5 -7,-10 -16,-10c-8,0 -12,5 -9,10c3,6 10,10 16,10c5,0 9,-4 9,-10zm335,-10c3,-5 1,-10 -4,-10c-6,0 -11,5 -11,10c0,6 2,10 4,10c3,0 8,-4 11,-10zm1475,0c0,-5 -2,-10 -4,-10c-3,0 -8,5 -11,10c-3,6 -1,10 4,10c6,0 11,-4 11,-10zm35,0c3,-5 1,-10 -4,-10c-6,0 -11,5 -11,10c0,6 2,10 4,10c3,0 8,-4 11,-10zm-1590,-10c-3,-5 -18,-10 -33,-9l-27,1l25,8c35,11 42,11 35,0zm105,-20c0,-5 -7,-10 -16,-10c-8,0 -12,5 -9,10c3,6 10,10 16,10c5,0 9,-4 9,-10zm-260,-10c0,-5 -5,-10 -11,-10c-5,0 -7,5 -4,10c3,6 8,10 11,10c2,0 4,-4 4,-10zm460,-26c0,-2 -9,-4 -20,-4c-11,0 -20,4 -20,9c0,5 9,7 20,4c11,-3 20,-7 20,-9zm70,-15c11,-19 10,-20 -10,-9c-11,6 -18,15 -15,21c9,13 13,11 25,-12zm-195,-5c-9,-9 -18,-14 -21,-11c-9,9 6,27 22,27c13,0 13,-2 -1,-16zm151,-64c0,-11 -1,-20 -2,-20c-1,0 -10,3 -18,6c-13,5 -14,9 -5,20c16,20 25,17 25,-6zm-86,-4c0,-3 -4,-8 -10,-11c-5,-3 -10,-1 -10,4c0,6 5,11 10,11c6,0 10,-2 10,-4zm190,-38c0,-6 -7,-5 -15,2c-8,7 -15,17 -15,22c0,6 7,5 15,-2c8,-7 15,-17 15,-22zm-60,12c0,-5 -2,-10 -4,-10c-3,0 -8,5 -11,10c-3,6 -1,10 4,10c6,0 11,-4 11,-10zm-70,-10c11,-7 3,-10 -28,-10c-50,0 -48,-16 3,-26c19,-3 35,-9 35,-13c0,-17 -14,-19 -34,-6c-11,8 -37,15 -57,15c-32,0 -36,3 -32,19c7,26 84,40 113,21zm94,-26c9,-3 16,-10 16,-14c0,-10 -38,-1 -46,11c-6,10 7,12 30,3zm-325,-13c23,-15 -3,-20 -29,-5c-22,12 -23,13 -5,13c11,1 26,-3 34,-8zm-485,-23c-1,-13 -3,-32 -4,-43l-1,-20l-9,20c-13,31 -11,65 3,65c8,0 13,-9 11,-22zm2191,-18c3,-5 2,-10 -4,-10c-5,0 -13,5 -16,10c-3,6 -2,10 4,10c5,0 13,-4 16,-10zm-2041,-67c-1,-42 -18,-63 -36,-44c-11,10 -10,14 5,22c21,12 23,33 1,25c-20,-8 -35,1 -28,17c2,7 17,12 32,13c24,1 27,-2 26,-33zm1427,-26c10,3 19,0 19,-6c0,-12 -14,-14 -47,-5c-26,7 -29,23 -10,43c10,10 13,7 15,-12c2,-19 8,-24 23,-20zm-81,14c0,-6 -4,-13 -10,-16c-5,-3 -10,1 -10,9c0,9 5,16 10,16c6,0 10,-4 10,-9zm-112,-59c2,-7 -3,-12 -12,-12c-9,0 -16,7 -16,16c0,17 22,14 28,-4zm379,2c-3,-3 -12,-4 -19,-1c-8,3 -5,6 6,6c11,1 17,-2 13,-5zm-457,-39c-7,-8 -17,-15 -23,-15c-5,0 -2,9 8,20c21,23 35,19 15,-5zm110,-15c0,-5 -5,-10 -11,-10c-5,0 -7,5 -4,10c3,6 8,10 11,10c2,0 4,-4 4,-10zm-235,-40c9,0 12,-6 9,-15c-4,-8 -1,-15 5,-15c6,0 11,-7 11,-15c0,-26 -27,-16 -40,15c-7,17 -16,30 -21,30c-5,0 -9,7 -9,16c0,14 1,14 16,0c8,-9 22,-16 29,-16zm-851,8c-5,-8 -2,-9 9,-5c9,3 19,2 22,-3c4,-6 2,-10 -4,-10c-5,0 -16,-3 -25,-6c-12,-4 -16,0 -16,15c0,12 5,21 11,21c5,0 7,-5 3,-12zm936,8c0,-3 -4,-8 -10,-11c-5,-3 -10,-1 -10,4c0,6 5,11 10,11c6,0 10,-2 10,-4zm77,-48c-3,-8 -6,-5 -6,6c-1,11 2,17 5,13c3,-3 4,-12 1,-19zm67,14c6,-10 -22,-47 -30,-40c-3,4 -3,16 1,27c6,21 20,27 29,13zm51,-49c-11,-7 -22,-13 -27,-13c-14,0 -8,19 9,29c25,13 40,1 18,-16zm-681,-15c-6,-31 -28,-57 -48,-58c-5,0 -2,8 6,18c8,9 18,29 22,45c3,15 11,27 17,27c7,0 8,-12 3,-32zm-114,13c0,-5 10,-7 23,-4c17,5 19,3 11,-7c-7,-6 -20,-10 -30,-8c-19,3 -32,28 -15,28c6,0 11,-4 11,-9zm420,-21c0,-5 -4,-10 -10,-10c-5,0 -10,5 -10,10c0,6 5,10 10,10c6,0 10,-4 10,-10zm-530,-10c0,-5 -4,-10 -10,-10c-5,0 -10,5 -10,10c0,6 5,10 10,10c6,0 10,-4 10,-10zm342,-12c-7,-7 -12,-8 -12,-2c0,14 12,26 19,19c2,-3 -1,-11 -7,-17zm418,-4c0,-8 -5,-12 -10,-9c-6,4 -8,11 -5,16c9,14 15,11 15,-7zm-110,-46c0,-10 -4,-18 -10,-18c-5,0 -10,9 -10,20c0,11 -7,20 -16,20c-8,0 -12,4 -9,10c9,14 45,-11 45,-32zm-87,21c-8,-8 -16,-8 -30,0c-16,9 -14,10 12,11c21,0 26,-3 18,-11zm147,1c0,-5 -7,-10 -15,-10c-8,0 -15,5 -15,10c0,6 7,10 15,10c8,0 15,-4 15,-10zm53,-25c-12,-9 -19,-10 -22,-3c-4,12 20,29 32,21c4,-3 0,-11 -10,-18zm97,-15c0,-5 -14,-10 -31,-10c-17,0 -28,4 -24,10c3,6 17,10 31,10c13,0 24,-4 24,-10zm-310,-20c0,-11 -2,-20 -4,-20c-2,0 -6,9 -9,20c-3,11 -1,20 4,20c5,0 9,-9 9,-20zm130,6c0,-3 -4,-8 -10,-11c-5,-3 -10,-1 -10,4c0,6 5,11 10,11c6,0 10,-2 10,-4zm-46,-21c4,-11 -2,-15 -24,-15c-46,0 -38,20 11,29c4,0 9,-6 13,-14zm156,-1c0,-8 -5,-12 -10,-9c-6,4 -8,11 -5,16c9,14 15,11 15,-7zm-366,-56c-4,-6 -2,-8 4,-4c6,3 13,2 17,-3c7,-13 -32,-34 -51,-27c-19,7 -18,36 1,36c8,0 15,5 15,11c0,5 5,7 10,4c6,-4 7,-11 4,-17z"/>
   <path id="svg_65" d="m1101,10174c-16,-19 -15,-19 33,-33c51,-13 57,-7 23,24c-30,29 -37,30 -56,9z"/>
   <path id="svg_66" d="m1560,10180c0,-5 5,-10 11,-10c5,0 7,5 4,10c-3,6 -8,10 -11,10c-2,0 -4,-4 -4,-10z"/>
   <path id="svg_67" d="m990,10150c0,-5 5,-10 10,-10c6,0 10,5 10,10c0,6 -4,10 -10,10c-5,0 -10,-4 -10,-10z"/>
   <path id="svg_68" d="m1600,10145c0,-8 7,-15 16,-15c14,0 14,3 4,15c-7,8 -14,15 -16,15c-2,0 -4,-7 -4,-15z"/>
   <path id="svg_69" d="m1518,10133c-6,-22 7,-52 17,-41c4,4 3,19 -2,35c-9,25 -10,26 -15,6z"/>
   <path id="svg_70" d="m1082,10128c5,-15 28,-23 28,-10c0,5 -7,13 -16,16c-10,4 -14,1 -12,-6z"/>
   <path id="svg_71" d="m1005,10090c-3,-5 -1,-10 4,-10c6,0 11,5 11,10c0,6 -2,10 -4,10c-3,0 -8,-4 -11,-10z"/>
   <path id="svg_72" d="m1785,10070c-3,-5 1,-10 10,-10c9,0 13,5 10,10c-3,6 -8,10 -10,10c-2,0 -7,-4 -10,-10z"/>
   <path id="svg_73" d="m2067,10063c-4,-3 -7,-13 -7,-22c1,-13 3,-13 11,2c11,19 8,33 -4,20z"/>
   <path id="svg_74" d="m1255,10050c3,-5 10,-10 16,-10c5,0 9,5 9,10c0,6 -7,10 -16,10c-8,0 -12,-4 -9,-10z"/>
   <path id="svg_75" d="m1740,10010c0,-5 5,-10 10,-10c6,0 10,5 10,10c0,6 -4,10 -10,10c-5,0 -10,-4 -10,-10z"/>
   <path id="svg_76" d="m3495,10010c-3,-5 -1,-10 4,-10c6,0 11,5 11,10c0,6 -2,10 -4,10c-3,0 -8,-4 -11,-10z"/>
   <path id="svg_77" d="m1640,9979c0,-5 5,-7 10,-4c6,3 10,8 10,11c0,2 -4,4 -10,4c-5,0 -10,-5 -10,-11z"/>
   <path id="svg_78" d="m3400,9979c0,-11 30,-12 48,0c9,5 3,8 -17,9c-17,0 -31,-4 -31,-9z"/>
   <path id="svg_79" d="m1795,9951c-3,-5 -1,-12 5,-16c5,-3 10,1 10,9c0,18 -6,21 -15,7z"/>
   <path id="svg_80" d="m3373,9952c-12,-2 -27,-10 -33,-18c-14,-16 0,-17 54,-5c23,5 26,8 15,16c-8,6 -24,9 -36,7z"/>
   <path id="svg_81" d="m3474,9937c-26,-15 -88,-86 -82,-93c3,-2 25,-2 49,2c32,5 53,17 77,42l34,35l-24,13c-28,16 -28,16 -54,1zm26,-46c0,-5 -7,-14 -15,-21c-16,-14 -18,-10 -9,14c6,17 24,22 24,7z"/>
   <path id="svg_82" d="m1785,9860c3,-5 8,-10 11,-10c2,0 4,5 4,10c0,6 -5,10 -11,10c-5,0 -7,-4 -4,-10z"/>
   <path id="svg_83" d="m3495,9810c3,-5 8,-10 11,-10c2,0 4,5 4,10c0,6 -5,10 -11,10c-5,0 -7,-4 -4,-10z"/>
   <path id="svg_84" d="m1315,9750c3,-5 8,-10 11,-10c2,0 4,5 4,10c0,6 -5,10 -11,10c-5,0 -7,-4 -4,-10z"/>
   <path id="svg_85" d="m3397,9725c-7,-23 -3,-61 6,-57c4,1 12,2 18,2c8,0 8,4 1,13c-5,6 -12,23 -14,37c-3,23 -4,23 -11,5z"/>
   <path id="svg_86" d="m1930,9709c0,-11 4,-18 10,-14c5,3 7,12 3,20c-7,21 -13,19 -13,-6z"/>
   <path id="svg_87" d="m2045,9700c-3,-5 -1,-10 4,-10c6,0 11,5 11,10c0,6 -2,10 -4,10c-3,0 -8,-4 -11,-10z"/>
   <path id="svg_88" d="m1126,9691c-4,-7 -5,-15 -2,-18c9,-9 19,4 14,18c-4,11 -6,11 -12,0z"/>
   <path id="svg_89" d="m2102,9692c-7,-5 -10,-16 -6,-25c9,-25 24,-20 24,8c0,28 0,28 -18,17z"/>
   <path id="svg_90" d="m1960,9630c0,-5 5,-10 10,-10c6,0 10,5 10,10c0,6 -4,10 -10,10c-5,0 -10,-4 -10,-10z"/>
   <path id="svg_91" d="m4380,9630c0,-5 5,-10 11,-10c5,0 7,5 4,10c-3,6 -8,10 -11,10c-2,0 -4,-4 -4,-10z"/>
   <path id="svg_92" d="m850,9605c0,-8 5,-15 10,-15c6,0 10,7 10,15c0,8 -4,15 -10,15c-5,0 -10,-7 -10,-15z"/>
   <path id="svg_93" d="m1995,9610c-3,-5 -1,-10 4,-10c6,0 11,5 11,10c0,6 -2,10 -4,10c-3,0 -8,-4 -11,-10z"/>
   <path id="svg_94" d="m3676,9585c-3,-8 -1,-15 4,-15c6,0 10,7 10,15c0,8 -2,15 -4,15c-2,0 -6,-7 -10,-15z"/>
   <path id="svg_95" d="m4311,9574c-10,-23 -9,-30 4,-43c14,-14 17,-14 25,-1c13,19 9,62 -6,67c-6,2 -16,-9 -23,-23z"/>
   <path id="svg_96" d="m3446,9575c-10,-27 -7,-35 15,-35c15,0 20,5 17,22c-4,27 -23,35 -32,13z"/>
   <path id="svg_97" d="m1297,9573c-4,-3 -7,-11 -7,-17c0,-6 5,-5 12,2c6,6 9,14 7,17c-3,3 -9,2 -12,-2z"/>
   <path id="svg_98" d="m1870,9570c0,-5 5,-10 10,-10c6,0 10,5 10,10c0,6 -4,10 -10,10c-5,0 -10,-4 -10,-10z"/>
   <path id="svg_99" d="m1490,9555c-7,-9 -8,-15 -2,-15c5,0 12,7 16,15c3,8 4,15 2,15c-2,0 -9,-7 -16,-15z"/>
   <path id="svg_100" d="m1920,9539c0,-5 5,-7 10,-4c6,3 10,8 10,11c0,2 -4,4 -10,4c-5,0 -10,-5 -10,-11z"/>
   <path id="svg_101" d="m1245,9530c4,-6 11,-8 16,-5c14,9 11,15 -7,15c-8,0 -12,-5 -9,-10z"/>
   <path id="svg_102" d="m1450,9525c0,-5 5,-17 10,-25c5,-8 10,-10 10,-5c0,6 -5,17 -10,25c-5,8 -10,11 -10,5z"/>
   <path id="svg_103" d="m1805,9510c-3,-5 1,-10 9,-10c9,0 16,5 16,10c0,6 -4,10 -9,10c-6,0 -13,-4 -16,-10z"/>
   <path id="svg_104" d="m3515,9499c-10,-15 1,-23 20,-15c9,3 13,10 10,16c-8,13 -22,13 -30,-1z"/>
   <path id="svg_105" d="m4170,9498c0,-18 18,-34 28,-24c3,4 -2,14 -11,23c-16,16 -17,16 -17,1z"/>
   <path id="svg_106" d="m1575,9490c3,-5 8,-10 11,-10c2,0 4,5 4,10c0,6 -5,10 -11,10c-5,0 -7,-4 -4,-10z"/>
   <path id="svg_107" d="m607,9469c-3,-12 0,-22 9,-26c9,-3 12,-13 9,-24c-4,-11 -2,-19 4,-19c14,0 14,37 1,45c-7,4 -7,13 0,26c8,15 7,19 -3,19c-8,0 -17,-9 -20,-21z"/>
   <path id="svg_108" d="m3438,9453c-24,-6 -23,-23 2,-23c11,0 23,0 28,0c11,0 9,23 -3,25c-5,2 -18,1 -27,-2z"/>
   <path id="svg_109" d="m720,9440c0,-5 5,-10 10,-10c6,0 10,5 10,10c0,6 -4,10 -10,10c-5,0 -10,-4 -10,-10z"/>
   <path id="svg_110" d="m1760,9439c0,-5 5,-7 10,-4c6,3 10,8 10,11c0,2 -4,4 -10,4c-5,0 -10,-5 -10,-11z"/>
   <path id="svg_111" d="m471,9404c0,-11 3,-14 6,-6c3,7 2,16 -1,19c-3,4 -6,-2 -5,-13z"/>
   <path id="svg_112" d="m3466,9385c4,-8 17,-15 30,-15c15,0 24,6 24,15c0,10 -10,15 -30,15c-22,0 -28,-4 -24,-15z"/>
   <path id="svg_113" d="m1625,9360c3,-5 10,-10 16,-10c5,0 9,5 9,10c0,6 -7,10 -16,10c-8,0 -12,-4 -9,-10z"/>
   <path id="svg_114" d="m3695,9360c-3,-5 -4,-14 0,-20c8,-13 35,-1 35,16c0,16 -26,19 -35,4z"/>
   <path id="svg_115" d="m3455,9350c3,-5 8,-10 11,-10c2,0 4,5 4,10c0,6 -5,10 -11,10c-5,0 -7,-4 -4,-10z"/>
   <path id="svg_116" d="m567,9310c3,-11 7,-20 9,-20c2,0 4,9 4,20c0,11 -4,20 -9,20c-5,0 -7,-9 -4,-20z"/>
   <path id="svg_117" d="m512,9298c6,-18 28,-21 28,-4c0,9 -7,16 -16,16c-9,0 -14,-5 -12,-12z"/>
   <path id="svg_118" d="m1557,9267c-3,-7 -1,-20 3,-28c7,-11 10,-10 16,4c4,10 2,23 -3,28c-7,7 -12,6 -16,-4z"/>
   <path id="svg_119" d="m1462,9249c2,-7 10,-15 17,-17c8,-3 12,1 9,9c-2,7 -10,15 -17,17c-8,3 -12,-1 -9,-9z"/>
   <path id="svg_120" d="m4205,9250c3,-5 10,-10 16,-10c5,0 9,5 9,10c0,6 -7,10 -16,10c-8,0 -12,-4 -9,-10z"/>
   <path id="svg_121" d="m505,9231c-3,-5 -1,-12 5,-16c5,-3 10,1 10,9c0,18 -6,21 -15,7z"/>
   <path id="svg_122" d="m1520,9224c0,-8 5,-12 10,-9c6,4 8,11 5,16c-9,14 -15,11 -15,-7z"/>
   <path id="svg_123" d="m1438,9213c7,-3 16,-2 19,1c4,3 -2,6 -13,5c-11,0 -14,-3 -6,-6z"/>
   <path id="svg_124" d="m470,9189c7,-11 14,-18 17,-15c8,8 -5,36 -17,36c-7,0 -7,-6 0,-21z"/>
   <path id="svg_125" d="m1480,9190c0,-5 5,-10 10,-10c6,0 10,5 10,10c0,6 -4,10 -10,10c-5,0 -10,-4 -10,-10z"/>
   <path id="svg_126" d="m1520,9180c0,-5 5,-10 10,-10c6,0 10,5 10,10c0,6 -4,10 -10,10c-5,0 -10,-4 -10,-10z"/>
   <path id="svg_127" d="m385,9144c1,-22 -2,-42 -7,-45c-7,-4 -6,-14 1,-28c7,-12 16,-19 20,-17c10,7 2,108 -9,120c-5,5 -7,-9 -5,-30z"/>
   <path id="svg_128" d="m1457,9163c-3,-5 -2,-15 2,-22c7,-10 10,-10 16,-1c4,6 3,16 -3,22c-5,5 -12,6 -15,1z"/>
   <path id="svg_129" d="m1520,9126c0,-19 5,-38 10,-41c6,-3 10,-15 10,-26c0,-10 7,-19 15,-19c8,0 15,-4 15,-10c0,-5 5,-10 10,-10c16,0 12,14 -15,54c-14,20 -25,48 -25,61c0,14 -4,25 -10,25c-5,0 -10,-15 -10,-34z"/>
   <path id="svg_130" d="m3850,9145c-11,-13 -11,-20 0,-39c9,-18 9,-28 0,-46c-9,-18 -9,-25 6,-41c11,-12 13,-19 5,-19c-7,0 -9,-4 -6,-10c3,-5 15,-10 27,-10c16,0 19,5 16,25c-3,14 -1,28 3,31c5,3 9,23 9,45c0,36 -2,40 -20,34c-18,-6 -20,-3 -14,19c7,29 -7,34 -26,11z"/>
   <path id="svg_131" d="m1480,9115c0,-9 5,-15 11,-13c6,2 11,8 11,13c0,5 -5,11 -11,13c-6,2 -11,-4 -11,-13z"/>
   <path id="svg_132" d="m3920,9101c0,-16 5,-42 11,-58l12,-28l9,35c7,24 6,36 -1,38c-6,2 -11,12 -11,23c0,10 -4,19 -10,19c-5,0 -10,-13 -10,-29z"/>
   <path id="svg_133" d="m1450,9110c0,-8 4,-31 10,-50c6,-21 6,-38 1,-43c-6,-6 -12,5 -16,27c-4,21 -13,36 -21,36c-8,0 -14,5 -14,12c0,6 -3,9 -6,6c-11,-12 23,-103 39,-102c8,1 20,-10 26,-24c11,-24 11,-24 -20,-18c-17,3 -42,17 -55,31c-25,27 -64,34 -64,11c0,-8 5,-18 10,-21c6,-3 10,-17 10,-31c0,-16 6,-24 17,-24c13,0 14,3 5,12c-19,19 -14,33 6,15c21,-19 42,-22 42,-7c0,22 68,-59 75,-89c4,-17 13,-31 21,-31c8,0 28,-15 44,-32c44,-49 40,-8 -5,45c-19,22 -35,47 -35,54c0,8 -7,25 -16,38c-21,33 -8,32 18,0c11,-14 25,-25 33,-25c7,0 15,-7 19,-15c3,-8 10,-15 16,-15c7,0 8,6 0,19c-22,41 -8,44 30,6c27,-27 39,-49 40,-68c0,-25 -2,-27 -21,-17c-16,9 -18,14 -9,25c12,15 6,35 -12,35c-5,0 -8,-7 -4,-15c3,-8 1,-15 -4,-15c-19,0 -10,-42 10,-47c13,-3 20,-14 20,-29c0,-13 5,-24 10,-24c6,0 10,14 10,31c0,22 5,32 20,36c22,6 25,19 10,57c-6,17 -14,24 -24,20c-11,-4 -21,5 -33,30c-9,20 -20,36 -24,36c-4,0 -12,14 -18,30c-5,17 -17,30 -26,30c-13,0 -15,-7 -9,-35c9,-49 -14,-46 -49,7c-24,37 -25,43 -12,58c21,23 21,47 0,30c-12,-10 -15,-10 -15,2c0,20 -29,58 -30,38z"/>
   <path id="svg_134" d="m1355,9090c3,-5 11,-10 16,-10c6,0 7,5 4,10c-3,6 -11,10 -16,10c-6,0 -7,-4 -4,-10z"/>
   <path id="svg_135" d="m4290,9090c0,-5 5,-10 10,-10c6,0 10,5 10,10c0,6 -4,10 -10,10c-5,0 -10,-4 -10,-10z"/>
   <path id="svg_136" d="m421,9074c0,-11 3,-14 6,-6c3,7 2,16 -1,19c-3,4 -6,-2 -5,-13z"/>
   <path id="svg_137" d="m595,9070c-3,-5 -1,-10 4,-10c6,0 11,5 11,10c0,6 -2,10 -4,10c-3,0 -8,-4 -11,-10z"/>
   <path id="svg_138" d="m1310,9045c0,-8 5,-15 10,-15c6,0 10,7 10,15c0,8 -4,15 -10,15c-5,0 -10,-7 -10,-15z"/>
   <path id="svg_139" d="m1354,9048c-4,-6 1,-17 11,-25c34,-24 46,-13 21,20c-15,20 -22,21 -32,5z"/>
   <path id="svg_140" d="m1270,9040c0,-5 5,-10 11,-10c5,0 7,5 4,10c-3,6 -8,10 -11,10c-2,0 -4,-4 -4,-10z"/>
   <path id="svg_141" d="m485,9020c3,-5 8,-10 11,-10c2,0 4,5 4,10c0,6 -5,10 -11,10c-5,0 -7,-4 -4,-10z"/>
   <path id="svg_142" d="m1600,9010c0,-11 7,-20 15,-20c17,0 18,2 9,24c-9,23 -24,20 -24,-4z"/>
   <path id="svg_143" d="m1520,9006c0,-9 5,-16 10,-16c6,0 10,4 10,9c0,6 -4,13 -10,16c-5,3 -10,-1 -10,-9z"/>
   <path id="svg_144" d="m4050,9008c0,-9 5,-20 10,-23c13,-8 13,5 0,25c-8,13 -10,13 -10,-2z"/>
   <path id="svg_145" d="m4220,9000c0,-5 5,-10 10,-10c6,0 10,5 10,10c0,6 -4,10 -10,10c-5,0 -10,-4 -10,-10z"/>
   <path id="svg_146" d="m461,8964c0,-11 3,-14 6,-6c3,7 2,16 -1,19c-3,4 -6,-2 -5,-13z"/>
   <path id="svg_147" d="m1640,8961c0,-22 16,-36 24,-22c8,12 -3,41 -15,41c-5,0 -9,-9 -9,-19z"/>
   <path id="svg_148" d="m4034,8947c3,-10 6,-23 6,-28c0,-5 5,-9 10,-9c14,0 12,13 -6,36c-14,17 -15,17 -10,1z"/>
   <path id="svg_149" d="m521,8909c11,-22 29,-25 29,-5c0,7 -9,16 -20,19c-17,4 -18,2 -9,-14z"/>
   <path id="svg_150" d="m4094,8904c3,-9 6,-18 6,-20c0,-2 5,-4 10,-4c6,0 10,9 10,20c0,12 -7,20 -16,20c-11,0 -14,-5 -10,-16z"/>
   <path id="svg_151" d="m411,8899c-1,-8 6,-24 15,-35c15,-19 15,-19 6,1c-5,11 -12,27 -15,35c-5,13 -6,13 -6,-1z"/>
   <path id="svg_152" d="m1302,8899c2,-7 10,-15 17,-17c8,-3 12,1 9,9c-2,7 -10,15 -17,17c-8,3 -12,-1 -9,-9z"/>
   <path id="svg_153" d="m1440,8891c0,-12 5,-21 10,-21c6,0 10,6 10,14c0,8 -4,18 -10,21c-5,3 -10,-3 -10,-14z"/>
   <path id="svg_154" d="m1340,8881c0,-6 5,-13 10,-16c6,-3 10,1 10,9c0,9 -4,16 -10,16c-5,0 -10,-4 -10,-9z"/>
   <path id="svg_155" d="m4075,8880c3,-5 8,-10 11,-10c2,0 4,5 4,10c0,6 -5,10 -11,10c-5,0 -7,-4 -4,-10z"/>
   <path id="svg_156" d="m1400,8856c0,-16 26,-46 40,-46c5,0 7,8 3,18c-14,38 -43,57 -43,28z"/>
   <path id="svg_157" d="m4143,8856c4,-10 7,-22 7,-27c0,-5 4,-9 9,-9c12,0 2,38 -12,47c-7,4 -8,0 -4,-11z"/>
   <path id="svg_158" d="m1460,8836c0,-8 5,-18 10,-21c6,-3 10,3 10,14c0,12 -4,21 -10,21c-5,0 -10,-6 -10,-14z"/>
   <path id="svg_159" d="m4050,8841c0,-6 5,-13 10,-16c6,-3 10,1 10,9c0,9 -4,16 -10,16c-5,0 -10,-4 -10,-9z"/>
   <path id="svg_160" d="m440,8808c0,-18 5,-28 15,-28c18,0 20,-31 3,-48c-9,-9 -9,-12 0,-12c7,0 14,6 16,13c2,6 8,27 14,45c10,30 9,32 -8,27c-12,-4 -22,1 -29,12c-9,16 -10,14 -11,-9z"/>
   <path id="svg_161" d="m1380,8801c0,-6 8,-15 19,-20c10,-6 22,-22 25,-36c4,-14 13,-25 21,-25c18,0 19,12 3,28c-7,7 -13,22 -13,35c0,17 -7,23 -27,25c-16,2 -28,-1 -28,-7z"/>
   <path id="svg_162" d="m4120,8785c0,-14 4,-25 9,-25c4,0 6,11 3,25c-2,14 -6,25 -8,25c-2,0 -4,-11 -4,-25z"/>
   <path id="svg_163" d="m4180,8800c0,-5 5,-10 11,-10c5,0 7,5 4,10c-3,6 -8,10 -11,10c-2,0 -4,-4 -4,-10z"/>
   <path id="svg_164" d="m1460,8789c0,-17 20,-49 31,-49c5,0 3,14 -6,30c-16,31 -25,38 -25,19z"/>
   <path id="svg_165" d="m1490,8789c0,-6 14,-24 31,-40c18,-16 28,-33 24,-37c-4,-4 -10,-1 -12,6c-3,6 -9,12 -14,12c-5,0 -2,-11 7,-25c9,-14 20,-25 25,-25c18,0 8,54 -17,87c-25,33 -44,43 -44,22z"/>
   <path id="svg_166" d="m1687,8793c-4,-3 -7,-11 -7,-17c0,-6 5,-5 12,2c6,6 9,14 7,17c-3,3 -9,2 -12,-2z"/>
   <path id="svg_167" d="m4220,8770c0,-5 4,-10 9,-10c6,0 13,5 16,10c3,6 -1,10 -9,10c-9,0 -16,-4 -16,-10z"/>
   <path id="svg_168" d="m1600,8755c0,-8 5,-15 10,-15c6,0 10,7 10,15c0,8 -4,15 -10,15c-5,0 -10,-7 -10,-15z"/>
   <path id="svg_169" d="m4291,8754c0,-11 3,-14 6,-6c3,7 2,16 -1,19c-3,4 -6,-2 -5,-13z"/>
   <path id="svg_170" d="m1372,8744c1,-9 9,-19 16,-22c9,-3 13,2 10,14c-1,9 -9,19 -16,22c-9,3 -13,-2 -10,-14z"/>
   <path id="svg_171" d="m4121,8726c10,-21 47,-42 57,-31c8,7 -10,45 -19,40c-5,-3 -18,-1 -29,5c-18,10 -19,9 -9,-14z"/>
   <path id="svg_172" d="m1640,8712c0,-19 18,-42 32,-42c12,0 9,35 -4,48c-17,17 -28,15 -28,-6z"/>
   <path id="svg_173" d="m4210,8720c-13,-8 -13,-11 2,-26c16,-17 18,-17 24,0c9,23 -7,38 -26,26z"/>
   <path id="svg_174" d="m1470,8701c0,-20 27,-48 37,-37c9,8 -14,56 -27,56c-5,0 -10,-8 -10,-19z"/>
   <path id="svg_175" d="m1590,8701c0,-10 7,-21 15,-25c11,-4 15,1 15,19c0,16 -6,25 -15,25c-8,0 -15,-9 -15,-19z"/>
   <path id="svg_176" d="m3770,8706c0,-5 98,-66 106,-66c3,0 4,7 0,15c-6,17 9,21 19,5c3,-5 14,-10 23,-10c13,0 12,5 -8,20c-17,14 -34,18 -53,14c-19,-4 -29,-1 -33,10c-5,14 -54,24 -54,12z"/>
   <path id="svg_177" d="m4130,8671c0,-12 5,-21 10,-21c6,0 10,6 10,14c0,8 -4,18 -10,21c-5,3 -10,-3 -10,-14z"/>
   <path id="svg_178" d="m4180,8679c0,-5 -5,-7 -11,-3c-8,5 -10,-1 -5,-19c4,-16 1,-27 -7,-31c-9,-5 -9,-7 0,-12c7,-3 10,-11 7,-19c-3,-7 10,-24 29,-39c41,-31 47,-32 40,-5c-4,12 -11,18 -20,15c-11,-5 -14,4 -13,42c3,70 1,82 -10,82c-5,0 -10,-5 -10,-11z"/>
   <path id="svg_179" d="m1570,8660c0,-5 5,-10 10,-10c6,0 10,5 10,10c0,6 -4,10 -10,10c-5,0 -10,-4 -10,-10z"/>
   <path id="svg_180" d="m1526,8644c-3,-9 -6,-16 -6,-17c0,-1 11,-3 25,-3c27,-2 31,6 13,24c-16,16 -25,15 -32,-4z"/>
   <path id="svg_181" d="m3787,8653c-13,-12 -7,-23 13,-23c11,0 20,7 20,15c0,15 -21,21 -33,8z"/>
   <path id="svg_182" d="m1606,8641c-3,-5 1,-11 9,-15c8,-3 15,-1 15,4c0,13 -18,22 -24,11z"/>
   <path id="svg_183" d="m4210,8623c0,-13 5,-23 10,-23c13,0 13,11 0,30c-8,12 -10,11 -10,-7z"/>
   <path id="svg_184" d="m3835,8620c-3,-5 1,-10 10,-10c8,0 18,-6 21,-14c3,-8 14,-14 25,-13c24,2 24,5 -3,28c-26,21 -44,24 -53,9z"/>
   <path id="svg_185" d="m1610,8590c0,-8 5,-22 10,-30c9,-13 10,-13 10,0c0,8 -5,22 -10,30c-9,13 -10,13 -10,0z"/>
   <path id="svg_186" d="m1841,8584c0,-11 3,-14 6,-6c3,7 2,16 -1,19c-3,4 -6,-2 -5,-13z"/>
   <path id="svg_187" d="m4080,8582c0,-29 -10,-32 -43,-15c-22,11 -32,12 -35,4c-2,-6 -11,-11 -19,-11c-13,0 -13,-3 -3,-15c7,-8 20,-15 30,-15c10,0 23,-7 30,-15c14,-16 55,-21 45,-5c-3,6 4,10 15,10c17,0 20,4 15,18c-4,9 -10,27 -12,40c-6,26 -23,30 -23,4z"/>
   <path id="svg_188" d="m4045,8580c3,-5 11,-10 16,-10c6,0 7,5 4,10c-3,6 -11,10 -16,10c-6,0 -7,-4 -4,-10z"/>
   <path id="svg_189" d="m1660,8566c0,-9 5,-16 10,-16c6,0 10,4 10,9c0,6 -4,13 -10,16c-5,3 -10,-1 -10,-9z"/>
   <path id="svg_190" d="m4120,8571c0,-5 7,-14 15,-21c19,-16 19,-30 1,-30c-22,0 -27,-16 -15,-44c15,-31 44,-36 36,-6c-3,11 -2,20 3,20c13,0 5,65 -10,77c-18,15 -30,16 -30,4z"/>
   <path id="svg_191" d="m1750,8555c0,-8 5,-15 10,-15c6,0 10,7 10,15c0,8 -4,15 -10,15c-5,0 -10,-7 -10,-15z"/>
   <path id="svg_192" d="m3740,8560c0,-5 9,-10 21,-10c11,0 17,5 14,10c-3,6 -13,10 -21,10c-8,0 -14,-4 -14,-10z"/>
   <path id="svg_193" d="m1697,8543c-14,-13 -6,-33 13,-33c11,0 20,4 20,9c0,13 -26,32 -33,24z"/>
   <path id="svg_194" d="m3666,8535c-6,-16 -4,-17 74,-19c48,-1 91,16 76,31c-4,4 -11,2 -15,-6c-6,-10 -17,-10 -47,-2c-54,15 -81,14 -88,-4z"/>
   <path id="svg_195" d="m3860,8540c0,-5 4,-10 9,-10c6,0 13,5 16,10c3,6 -1,10 -9,10c-9,0 -16,-4 -16,-10z"/>
   <path id="svg_196" d="m3935,8520c22,-11 47,-20 56,-20c9,0 22,-7 29,-15c10,-12 10,-15 -3,-15c-13,0 -11,-6 8,-26c19,-20 31,-25 62,-22l38,3l-30,17c-21,12 -25,17 -12,18c23,0 22,20 -2,20c-11,0 -41,11 -68,25c-26,14 -64,27 -83,30l-35,5l40,-20z"/>
   <path id="svg_197" d="m1650,8520c0,-5 5,-10 10,-10c6,0 10,5 10,10c0,6 -4,10 -10,10c-5,0 -10,-4 -10,-10z"/>
   <path id="svg_198" d="m1737,8501c-5,-22 1,-33 14,-25c12,7 12,44 0,44c-5,0 -11,-9 -14,-19z"/>
   <path id="svg_199" d="m3728,8502c-10,-2 -18,-8 -18,-13c0,-5 -7,-9 -15,-9c-8,0 -15,-4 -15,-10c0,-16 26,-12 51,9c26,21 24,30 -3,23z"/>
   <path id="svg_200" d="m3785,8500c-18,-7 -18,-9 -3,-15c25,-10 121,-2 125,11c4,13 -92,16 -122,4z"/>
   <path id="svg_201" d="m1610,8490c0,-5 5,-10 10,-10c6,0 10,5 10,10c0,6 -4,10 -10,10c-5,0 -10,-4 -10,-10z"/>
   <path id="svg_202" d="m1660,8481c0,-6 5,-13 10,-16c6,-3 10,1 10,9c0,9 -4,16 -10,16c-5,0 -10,-4 -10,-9z"/>
   <path id="svg_203" d="m1701,8474c0,-11 3,-14 6,-6c3,7 2,16 -1,19c-3,4 -6,-2 -5,-13z"/>
   <path id="svg_204" d="m3966,8474c-9,-24 -7,-28 9,-14c17,14 20,30 6,30c-5,0 -12,-7 -15,-16z"/>
   <path id="svg_205" d="m3742,8464c-14,-10 -5,-13 53,-19c39,-4 84,-13 102,-21c39,-18 76,-18 71,-1c-9,27 -198,62 -226,41z"/>
   <path id="svg_206" d="m4190,8469c0,-5 5,-7 10,-4c6,3 10,8 10,11c0,2 -4,4 -10,4c-5,0 -10,-5 -10,-11z"/>
   <path id="svg_207" d="m1765,8460c-3,-6 1,-13 10,-16c19,-8 30,0 20,15c-8,14 -22,14 -30,1z"/>
   <path id="svg_208" d="m1720,8450c0,-5 5,-10 10,-10c6,0 10,5 10,10c0,6 -4,10 -10,10c-5,0 -10,-4 -10,-10z"/>
   <path id="svg_209" d="m1520,8440c0,-5 5,-10 10,-10c6,0 10,5 10,10c0,6 -4,10 -10,10c-5,0 -10,-4 -10,-10z"/>
   <path id="svg_210" d="m1585,8440c-3,-5 -1,-10 4,-10c6,0 11,5 11,10c0,6 -2,10 -4,10c-3,0 -8,-4 -11,-10z"/>
   <path id="svg_211" d="m3500,8440c0,-5 7,-10 16,-10c8,0 12,5 9,10c-3,6 -10,10 -16,10c-5,0 -9,-4 -9,-10z"/>
   <path id="svg_212" d="m1655,8430c3,-5 11,-10 16,-10c6,0 7,5 4,10c-3,6 -11,10 -16,10c-6,0 -7,-4 -4,-10z"/>
   <path id="svg_213" d="m3705,8430c3,-5 8,-10 11,-10c2,0 4,5 4,10c0,6 -5,10 -11,10c-5,0 -7,-4 -4,-10z"/>
   <path id="svg_214" d="m1701,8414c0,-11 3,-14 6,-6c3,7 2,16 -1,19c-3,4 -6,-2 -5,-13z"/>
   <path id="svg_215" d="m1770,8405c0,-8 7,-15 15,-15c8,0 15,7 15,15c0,8 -7,15 -15,15c-8,0 -15,-7 -15,-15z"/>
   <path id="svg_216" d="m1820,8405c0,-8 5,-15 10,-15c6,0 10,7 10,15c0,8 -4,15 -10,15c-5,0 -10,-7 -10,-15z"/>
   <path id="svg_217" d="m3470,8409c0,-22 33,-38 54,-27c19,10 19,11 1,24c-23,17 -55,18 -55,3z"/>
   <path id="svg_218" d="m3763,8398c-32,-19 -43,-38 -23,-38c6,0 10,5 10,10c0,6 10,10 23,10c12,0 28,9 35,20c16,26 -1,26 -45,-2z"/>
   <path id="svg_219" d="m3850,8414c0,-25 65,-57 101,-49c21,5 36,1 55,-14c29,-23 44,-27 44,-11c0,5 -12,13 -26,16c-16,4 -23,12 -20,20c4,10 -4,14 -30,14c-19,0 -51,7 -71,15c-38,16 -53,19 -53,9z"/>
   <path id="svg_220" d="m4020,8410c0,-5 5,-10 11,-10c5,0 7,5 4,10c-3,6 -8,10 -11,10c-2,0 -4,-4 -4,-10z"/>
   <path id="svg_221" d="m3687,8403c-13,-13 -7,-32 8,-27c8,4 15,12 15,20c0,15 -12,19 -23,7z"/>
   <path id="svg_222" d="m4115,8380c3,-5 8,-10 11,-10c2,0 4,5 4,10c0,6 -5,10 -11,10c-5,0 -7,-4 -4,-10z"/>
   <path id="svg_223" d="m1875,8370c3,-5 8,-10 11,-10c2,0 4,5 4,10c0,6 -5,10 -11,10c-5,0 -7,-4 -4,-10z"/>
   <path id="svg_224" d="m4038,8373c7,-3 16,-2 19,1c4,3 -2,6 -13,5c-11,0 -14,-3 -6,-6z"/>
   <path id="svg_225" d="m4140,8369c0,-5 5,-7 10,-4c6,3 10,8 10,11c0,2 -4,4 -10,4c-5,0 -10,-5 -10,-11z"/>
   <path id="svg_226" d="m1830,8360c0,-5 5,-10 11,-10c5,0 7,5 4,10c-3,6 -8,10 -11,10c-2,0 -4,-4 -4,-10z"/>
   <path id="svg_227" d="m3454,8359c-3,-6 -17,-8 -30,-5c-24,6 -35,-9 -11,-17c9,-3 9,-7 -1,-20c-8,-9 -10,-22 -6,-28c5,-9 11,-7 20,6c7,9 27,20 45,24c34,7 53,31 25,31c-9,0 -16,5 -16,10c0,13 -17,13 -26,-1z"/>
   <path id="svg_228" d="m3313,8345c-8,-22 -1,-26 35,-19c18,4 32,13 32,20c0,20 -59,18 -67,-1z"/>
   <path id="svg_229" d="m3670,8340c0,-5 7,-10 15,-10c8,0 15,5 15,10c0,6 -7,10 -15,10c-8,0 -15,-4 -15,-10z"/>
   <path id="svg_230" d="m3940,8342c0,-4 4,-13 9,-20c9,-15 42,-13 41,3c0,11 -50,27 -50,17z"/>
   <path id="svg_231" d="m4079,8333c9,-16 71,-29 71,-14c0,8 -50,31 -67,31c-10,0 -11,-5 -4,-17z"/>
   <path id="svg_232" d="m1770,8320c0,-5 5,-10 10,-10c6,0 10,5 10,10c0,6 -4,10 -10,10c-5,0 -10,-4 -10,-10z"/>
   <path id="svg_233" d="m1898,8305c-3,-14 -2,-25 2,-25c11,0 20,39 10,45c-4,3 -10,-6 -12,-20z"/>
   <path id="svg_234" d="m3357,8314c-8,-8 1,-24 13,-24c4,0 10,7 14,15c5,15 -14,21 -27,9z"/>
   <path id="svg_235" d="m4022,8313c-26,-5 -20,-23 9,-23c10,0 19,7 19,15c0,8 -1,14 -2,14c-2,-1 -13,-4 -26,-6z"/>
   <path id="svg_236" d="m3494,8299c-3,-6 -1,-16 5,-22c8,-8 11,-5 11,11c0,24 -5,28 -16,11z"/>
   <path id="svg_237" d="m3906,8301c-3,-5 1,-11 9,-15c9,-3 15,0 15,9c0,16 -16,20 -24,6z"/>
   <path id="svg_238" d="m3726,8284c-5,-14 -4,-15 9,-4c17,14 19,20 6,20c-5,0 -12,-7 -15,-16z"/>
   <path id="svg_239" d="m3865,8290c-3,-5 1,-10 9,-10c9,0 16,5 16,10c0,6 -4,10 -9,10c-6,0 -13,-4 -16,-10z"/>
   <path id="svg_240" d="m1834,8274c3,-9 6,-18 6,-20c0,-3 5,-2 10,1c16,10 12,35 -6,35c-11,0 -14,-5 -10,-16z"/>
   <path id="svg_241" d="m3457,8283c-4,-3 -7,-11 -7,-17c0,-6 5,-5 12,2c6,6 9,14 7,17c-3,3 -9,2 -12,-2z"/>
   <path id="svg_242" d="m3770,8280c0,-5 7,-10 15,-10c8,0 15,5 15,10c0,6 -7,10 -15,10c-8,0 -15,-4 -15,-10z"/>
   <path id="svg_243" d="m3945,8280c-3,-6 1,-13 10,-16c19,-8 30,0 20,15c-8,14 -22,14 -30,1z"/>
   <path id="svg_244" d="m4103,8283c-20,-7 -15,-23 7,-23c11,0 20,4 20,9c0,13 -12,19 -27,14z"/>
   <path id="svg_245" d="m3260,8268c0,-7 4,-19 9,-27c11,-17 25,3 17,24c-7,18 -26,20 -26,3z"/>
   <path id="svg_246" d="m1500,8261c0,-5 7,-14 15,-21c18,-15 42,1 31,19c-8,13 -46,15 -46,2z"/>
   <path id="svg_247" d="m2623,8241c-25,-21 -29,-36 -13,-46c15,-9 60,25 60,46c0,24 -19,24 -47,0z"/>
   <path id="svg_248" d="m3815,8250c3,-5 15,-10 25,-10c10,0 22,5 25,10c4,6 -7,10 -25,10c-18,0 -29,-4 -25,-10z"/>
   <path id="svg_249" d="m3918,8238c9,-9 15,-9 24,0c9,9 7,12 -12,12c-19,0 -21,-3 -12,-12z"/>
   <path id="svg_250" d="m3994,8236c-3,-8 -16,-16 -27,-16c-12,0 -31,-1 -42,-2c-11,0 -28,3 -38,7c-13,6 -16,4 -11,-9c8,-21 -17,-50 -57,-66c-33,-14 -38,-30 -10,-30c13,0 18,-5 15,-17c-3,-11 3,-23 14,-30c16,-10 27,-8 58,9c22,12 49,21 62,20c18,-1 24,5 29,28c3,17 9,30 14,30c7,0 79,66 79,73c0,2 -8,3 -17,4c-10,1 -28,4 -40,8c-16,5 -25,3 -29,-9z"/>
   <path id="svg_251" d="m1887,8219c-10,-35 -9,-38 13,-32c24,6 25,13 7,38c-13,17 -14,17 -20,-6z"/>
   <path id="svg_252" d="m2110,8225c0,-8 6,-15 14,-15c8,0 16,7 20,15c4,10 -1,15 -14,15c-11,0 -20,-7 -20,-15z"/>
   <path id="svg_253" d="m2435,8230c-3,-5 -15,-10 -26,-10c-11,0 -17,-4 -14,-10c3,-5 10,-10 14,-10c14,0 57,39 44,40c-6,0 -15,-4 -18,-10z"/>
   <path id="svg_254" d="m3740,8230c0,-5 5,-10 10,-10c6,0 10,5 10,10c0,6 -4,10 -10,10c-5,0 -10,-4 -10,-10z"/>
   <path id="svg_255" d="m3780,8225c-9,-11 -10,-19 -3,-26c7,-7 14,-5 23,6c9,11 10,19 3,26c-7,7 -14,5 -23,-6z"/>
   <path id="svg_256" d="m2906,8188c-4,-10 -16,-20 -27,-23c-26,-9 -44,-42 -22,-42c22,0 65,46 60,65c-4,16 -5,16 -11,0z"/>
   <path id="svg_257" d="m4100,8185c0,-8 5,-15 10,-15c6,0 10,7 10,15c0,8 -4,15 -10,15c-5,0 -10,-7 -10,-15z"/>
   <path id="svg_258" d="m1370,8181c0,-6 5,-13 10,-16c6,-3 10,1 10,9c0,9 -4,16 -10,16c-5,0 -10,-4 -10,-9z"/>
   <path id="svg_259" d="m1250,8165c0,-8 5,-15 10,-15c6,0 10,7 10,15c0,8 -4,15 -10,15c-5,0 -10,-7 -10,-15z"/>
   <path id="svg_260" d="m1426,8162c-8,-13 5,-53 15,-46c12,7 12,41 0,49c-5,3 -12,2 -15,-3z"/>
   <path id="svg_261" d="m1486,8134c-18,-23 -26,-43 -23,-56c6,-22 -13,-59 -47,-93c-19,-19 -19,-19 12,-32c42,-17 41,-35 -1,-32c-24,2 -43,-4 -66,-22c-30,-24 -31,-26 -14,-41c15,-14 25,-15 61,-5c41,11 57,27 27,27c-8,0 -15,4 -15,9c0,5 7,11 15,15c9,3 15,0 15,-8c0,-19 33,-46 58,-46c12,0 23,8 27,20c3,11 13,20 21,20c8,0 17,13 20,29c6,29 7,30 30,14c18,-11 23,-21 19,-37c-5,-17 -4,-18 4,-6c7,10 11,11 11,3c0,-7 8,-13 18,-13c29,0 16,55 -19,84c-16,14 -29,30 -29,37c0,10 3,10 12,1c18,-18 38,-14 38,7c0,19 -62,81 -80,81c-6,0 -10,7 -10,16c0,14 2,14 16,3c14,-12 16,-11 12,6c-4,20 -19,23 -50,10c-14,-5 -18,-2 -18,13c0,34 -14,33 -44,-4z"/>
   <path id="svg_262" d="m2927,8163c-14,-13 -6,-23 17,-23c13,0 29,7 36,15c11,13 8,15 -17,15c-16,0 -33,-3 -36,-7z"/>
   <path id="svg_263" d="m3165,8160c-3,-5 -1,-10 4,-10c6,0 11,5 11,10c0,6 -2,10 -4,10c-3,0 -8,-4 -11,-10z"/>
   <path id="svg_264" d="m1340,8132c0,-4 5,-13 11,-19c15,-15 5,-29 -35,-48c-25,-12 -33,-21 -29,-36c4,-13 0,-19 -10,-19c-22,0 -32,-20 -16,-31c8,-5 24,-9 35,-9c12,0 24,-7 28,-15c7,-20 56,-20 56,1c0,28 -20,54 -42,54c-17,0 -18,3 -9,14c11,13 17,12 44,-4c30,-18 33,-18 34,-2c1,9 4,28 5,42c2,19 -1,25 -15,23c-13,-1 -17,4 -13,14c4,9 1,22 -5,29c-12,15 -39,19 -39,6z"/>
   <path id="svg_265" d="m4077,8134c-9,-10 -9,-44 1,-44c4,0 14,5 22,10c13,8 13,11 -1,25c-8,8 -18,12 -22,9z"/>
   <path id="svg_266" d="m4000,8105c0,-8 7,-15 15,-15c9,0 12,6 9,15c-4,8 -10,15 -15,15c-5,0 -9,-7 -9,-15z"/>
   <path id="svg_267" d="m1213,8079c-9,-9 -6,-17 12,-30c29,-24 45,-24 45,-1c0,35 -35,53 -57,31z"/>
   <path id="svg_268" d="m3940,8070c8,-5 11,-10 6,-10c-5,0 -1,-9 9,-20c21,-23 45,-26 45,-6c0,22 -28,46 -53,46c-18,0 -19,-2 -7,-10z"/>
   <path id="svg_269" d="m4015,8050c-3,-5 1,-10 9,-10c8,0 18,5 21,10c3,6 -1,10 -9,10c-8,0 -18,-4 -21,-10z"/>
   <path id="svg_270" d="m1670,8012c0,-12 19,-26 26,-19c2,2 -2,10 -11,17c-9,8 -15,8 -15,2z"/>
   <path id="svg_271" d="m1735,7990c-7,-12 2,-30 16,-30c5,0 9,9 9,20c0,21 -15,27 -25,10z"/>
   <path id="svg_272" d="m1792,7964c2,-11 11,-20 22,-22c13,-3 17,1 14,14c-2,11 -11,20 -22,22c-13,3 -17,-1 -14,-14z"/>
   <path id="svg_273" d="m3960,7970c0,-5 5,-10 10,-10c6,0 10,5 10,10c0,6 -4,10 -10,10c-5,0 -10,-4 -10,-10z"/>
   <path id="svg_274" d="m1290,7900c0,-5 5,-10 11,-10c5,0 7,5 4,10c-3,6 -8,10 -11,10c-2,0 -4,-4 -4,-10z"/>
   <path id="svg_275" d="m1760,7880c0,-5 5,-10 10,-10c6,0 10,5 10,10c0,6 -4,10 -10,10c-5,0 -10,-4 -10,-10z"/>
   <path id="svg_276" d="m1540,7805c0,-9 6,-12 15,-9c8,4 12,10 9,15c-8,14 -24,10 -24,-6z"/>
   <path id="svg_277" d="m1615,7810c4,-6 11,-8 16,-5c14,9 11,15 -7,15c-8,0 -12,-5 -9,-10z"/>
   <path id="svg_278" d="m2877,1194c-8,-8 1,-24 13,-24c4,0 10,7 14,15c5,15 -14,21 -27,9z"/>
  </g>
 </g>
</svg>